<svg xmlns="http://www.w3.org/2000/svg" version="1.1" xmlns:xlink="http://www.w3.org/1999/xlink" width="1000" height="1000"><g clip-path="url(#SvgjsClipPath1714)"><rect width="1000" height="1000" fill="#689fbd"></rect><g transform="matrix(1.4634146341463414,0,0,1.4634146341463414,50,124.6341463414634)"><svg xmlns="http://www.w3.org/2000/svg" version="1.1" xmlns:xlink="http://www.w3.org/1999/xlink" width="615" height="513"><svg version="1.1" viewBox="0 0 2048 1708" width="615" height="513" xmlns="http://www.w3.org/2000/svg">
  <defs>
    <mask id="cutouts" maskUnits="userSpaceOnUse">
      <rect x="0" y="0" width="2048" height="1708" fill="#fff"></rect>
      <path transform="translate(1766,135)" d="m0 0h24l20 3 21 6 25 10 23 12 16 11 16 13 12 11 13 13 13 18 9 15 12 25 7 22 3 11 4 26v45l-4 29-5 22-9 27-12 26-13 23-10 14-9 11-9 10-17 17-18 13-13 8-16 8-5-1-22-9-28-15-27-16-30-20-10-6-16-8-29-14-19-10-40-20-21-12-24-15-16-11-13-12-8-11-2-5-1-6v-15l3-22 6-25 9-24 12-26 11-20 11-16 10-13 9-11 10-11 1-2h2l1-3 8-7 9-9 17-13 14-9 18-10 26-11 18-6 14-3z" fill="#000"></path>
      <path transform="translate(1110,752)" d="m0 0h8l6 3 5 6 3 6 1 4v26l-4 18-7 24-10 25-10 20-10 15-9 11-7 8-8 7-9 8-14 9-16 8-20 6-20 3h-28l-19-3-21-7-17-8-12-8-13-11-11-11-7-8-10-11-14-19-13-20-12-21-13-23-4-6v-2l10 2 35 9 24 4 25 2h23l23-2 29-5 28-7 32-11 24-10 16-8 22-12 16-8z" fill="#000"></path>
      <path transform="translate(706,527)" d="m0 0h23l15 3 18 6 21 10 12 8 11 9 10 10 10 14 8 16 5 15 5 21 1 8v12l-2 15-4 15-6 15-8 15-11 14-10 10-13 10-19 12-12 5-9 2h-15l-3-1 2-4 15-8 9-4-12-1-18-6-12-7-9-7v-2l-3-1-9-12-7-14-4-14-1-11v-18l2-16 7-21 9-17 4-8 7-9 10-9 10-7 12-6-3-2-6-1h-22l-17 3-16 7-14 9-14 12-10 12-8 14-7 16-5 21v30l5 19 5 12 8 15 12 14 11 8 14 7 19 7v3h-9l-16-4-21-10-14-10-11-10-9-11-10-16-7-16-6-20-2-14v-23l3-19 5-15 9-19 10-14 12-13 13-10 18-10 17-8 19-5z" fill="#000"></path>
      <path transform="translate(1142,491)" d="m0 0h10l22 3 15 5 25 12 13 9 12 11 7 7 11 15 9 17 6 19 3 19v25l-4 20-6 17-9 16-7 9-9 10-13 10-14 8-14 6-16 6-7 1 3-3 12-7 6-2 1-2-19-2-18-6-14-8-10-8-8-10-10-17-4-11-2-16v-20l2-14 6-18 9-16 12-16 11-12 10-7 11-5v-2l-16-3h-19l-16 4-16 7-12 8-13 11-8 9-8 14-8 17-5 18-1 4v26l4 20 5 16 8 16 8 14h-3l-11-9-11-10-10-14-9-19-6-20-2-13v-29l3-19 5-15 10-19 10-13 17-17 14-10 16-8 18-6 12-2z" fill="#000"></path>
      <path transform="translate(708,480)" d="m0 0h19l12 3 14 6 16 10 10 8 2 4-10-1-22-3h-53l-31 4-19 5-10 3 4-5 19-13 11-7 14-7 15-5z" fill="#000"></path>
    </mask>
  <clipPath id="SvgjsClipPath1714"><rect width="1000" height="1000" x="0" y="0" rx="350" ry="350"></rect></clipPath></defs>
  <path transform="translate(0)" d="m0 0h2048v1708h-2048z" fill="none"></path>
  <g mask="url(#cutouts)">
    <path transform="translate(1159,27)" d="m0 0h51l56 2 29 2 44 5 32 5 29 6 25 6 25 7 36 12 24 10 27 14 18 12 14 11 15 14 9 10 7 8 2 2-1 4-22 22-9 11-12 15-13 18-10 15-9 15-12 23-12 27-10 28-7 24-4 5-18 13-20 14-18 11-10 6-29 17-19 11-21 11-22 15-18 13-17 12-5 6 9-3 39-12 36-10 49-17 36-12 7-2 3-2h4l4 16 6 30v20l-4 13-8 16-10 16-14 15-22 22-8 7-16 15-11 9-13 10-19 14-14 10-13 10-7 5-1 2 15-5 24-7 36-12 29-10 16-7h4l-2 11-5 30-1 24v9l-2 3h-2l-2 4-9 11-11 13-9 10-7 8-22 22-8 7-13 11-13 10-17 13-20 14-19 12-28 16-27 15-7 4-1 2 13-4 28-7 39-12 36-12 31-11 22-8 7-4h2l-2 5-9 15-11 16-11 14-12 13-11 12-26 26-8 7-15 13-15 12-17 12-14 10-36 24-27 16-27 15-29 14-20 9-25 11-31 13-27 10-32 13-30 11-10 5h-2v2l13-3 60-8 39-7 44-11 40-11 50-16 9-4h4l1 29 4 16 7 21 5 8-2 4-26 14-29 13-71 29-7 3 34-2 23-2 60-9 28-4 4 1-1 7-6 11-7 8-11 9-14 10-22 12-31 16-26 10-24 7-28 7-33 6-38 5-49 3-56 2-42 1v3l18 4 50 9 33 4 41 2h35l34-2 38-5 49-8 16-3 4 1-2 6-6 11-11 14-9 9-15 11-15 9-25 12-19 7-30 9-31 6-22 3-22 2h-57l-49-4-29-4-28-6-26-7-30-10-28-12-19-10-19-12-12-9-14-12-19-19-11-14-9-14-8-18-4-12-1-5v-22l3-16 4 2 9 10 11 10 17 13 15 10 12 7 20 9 25 9 28 8 8 3-5-5-11-7-19-13-13-10-12-11-10-10-10-14-7-14-2-10 5 1 10 4 28 8 35 6 37 4 30 2h36l37-3 30-4 38-7 23-6 7-2v-2l-26 2h-43l-47-2-39-4-44-8-32-8-27-10-15-7-22-11-19-12-13-11-8-7-7-7-6-10-5-13-1-8 22 1 26 1h54l34-3 50-6 60-11 35-8 31-9 28-10 19-8 6-2 1-2-27 4-42 4-62 4-54 2h-72l-39-3-37-5-23-5-35-12-22-10-17-10-14-10-10-9-9-10-9-14-5-11-3-10-1-15 1-1h10l36 3 18 1h66v-2l-9-2-54-17-25-9-35-15-23-11-14-9-3-5-4-17-8-19-9-16-10-13-12-14-10-8v-1l37-2 27-1 37-4 18-1-3-2-25-5-49-13-32-11-20-9-22-10-23-13-27-18-13-10-11-9-19-19-8-10-12-17-9-15-8-17-6-17v-2l5 2 12 6 28 10 29 8 36 8 25 4 29 3 19 1h27l26-2 33-5 26-6 11-4 9-6 9-8-2-2-118-20-37-8-36-10-38-12-31-11-24-11-18-10-12-8-13-10-12-11-12-12-10-13-7-12-6-16-4-16-1-12 3-19 5-17 8-17 10-16 11-14 9-10 10-11 8-7 15-13 17-13 18-12 21-13 21-12 32-15 39-16 34-13 39-12 35-9 40-9 35-6 53-8 19-2h6l-1 2-42 10-57 16-35 11-25 9-45 19-20 9-16 8-20 11-23 15-13 9-11 9-10 9-15 14-12 14-10 15-8 17-3 13v16l4 12 6 11 9 10 12 9 33 16 2 8 4 20 8 19 6 11 9 12 9 10 13 13 15 10 19 9 20 7 16 3 11 1h10l22-3 24-7 16-7 11-7 14-11 13-13 10-13 8-13 8-17 7-22 3-13 52-3 170-14 80-7 59-6 42-4 15-1h16l1 1 4 27 6 21 8 20 8 15 10 14 9 10 10 9 3 2v2l3 1-2 1-7-2-14-1-16 3-16 7-11 7-7 7-7 10 7-1 29-6 24-3 37-1 3-1v-5l-15-10-1-2 5 2 18 8 24 7 11 2 12 1h15l18-2 28-7 15-6 15-9 12-9 10-10 11-16 11-21 8-21 5-22v-27l-4-29-1-8 22-8 26-11 20-11 13-10 7-6 10-13 8-15 3-14v-8l-4-13-7-13-9-11-8-8-13-9-16-9-28-12-22-8-29-8-37-8-41-7-35-4-36-3-56-3-29-1h-82l-63 3-53 4-63 7-50 8-47 9-62 13-29 7h-6l3-3 34-12 50-16 23-7 38-10 42-10 42-8 90-15 59-7 48-4z" fill="#FDFDFD"></path>
    <path transform="translate(1590,559)" d="m0 0 17 1 16 4 18 8 18 10 17 12 11 9 10 9 14 15 10 13 11 18 8 14 8 20 3 16v19l-4 22-5 22-4 17-7 17-13 23-10 15-9 11-9 10-12 12-15 11-21 11-16 5-14 2h-11l-16-3-8-6-8-10-8-14-1-3 10-1 35-1 10-2 1-2-20-3-16-5-26-11-22-10-14-8-9-7-10-9-7-10-6-13-1-5v-9l3-10 7-11 9-7 7-3h10l24 8 40 15 15 4h7l-12-4-41-20-23-12-13-9-7-8-4-9-1-4v-15l5-12 7-9 8-7 12-6 4-1h21l19 4 26 9 25 9 13 5 2-1-14-10-11-7-16-8-21-10-18-6-22-5-8-4-4-8v-15l5-13 8-12 8-9 11-7 10-4z" fill="#FDFDFD"></path>
    <path transform="translate(1758,103)" d="m0 0h31l23 3 32 8 25 10 21 11 21 13 18 13 15 13 9 9 7 8 11 12 12 17 13 25 10 24 8 26 3 17 2 26v23l-2 22-5 28-8 31-7 20-13 29-12 21-10 15-13 17-10 11-7 8-8 8-11 9-12 10-18 12-23 12-16 6-21 6-19 3h-33l-19-2-5-3-8-9-10-13-10-10v-7l4-19 2-18h-17l-4 7-7 18h-3l-17-12-24-15-2-2 1-6v-17l-4 1-9 11-6 7-5-1-15-4-10-1h-19l-18 4-5-1-9-10-8-9-8-13-10-19-9-23-6-24-3-27v-26l2-19 5-26 7-26 8-21 12-25 14-25 12-17 12-16 13-15 14-15 11-11 11-9 13-11 17-12 18-11 21-10 21-7 24-5zm8 32-24 3-19 5-27 11-16 8-16 9-16 12-11 9-8 8-7 6v2h-2l-7 8-11 13-10 13-14 21-13 24-9 20-9 24-6 25-3 22v15l2 9 6 9 9 10 11 9 20 13 28 17 33 17 30 15 19 10 27 13 19 11 23 16 26 15 18 10 17 9 20 8 4-1 19-9 20-14 10-8 21-21 11-14 10-14 13-23 9-19 8-21 7-25 4-23 2-16v-45l-4-26-7-24-6-16-11-22-12-18-10-13-19-19-11-9-13-10-19-12-25-12-25-9-23-5-9-1z" fill="#FDFDFD"></path>
    <path transform="translate(621,1347)" d="m0 0 6 2 34 15 30 13 34 13 36 12 32 8 36 7 55 7 15 1h75l17-1 12-1-1 4-11 10-18 13-16 9-25 10-30 9-34 7-15 2h-5l-1 7-7 21-2 10v21l7 24 8 17 8 12 11 13 8 8 11 9 13 9 19 10 12 5v3l-37-1-44-4-17-3-35-9-21-7-23-10-16-8-15-8-18-11-14-11-12-11-13-13-10-13-9-15-6-16-3-17 3-1 17 7 25 8 37 9 11 3-4-4-20-10-19-12-16-12-11-9-15-15-13-17-9-16-8-18-4-14-1-7v-9l3-24 2-10z" fill="#FDFDFD"></path>
    <path transform="translate(1230,214)" d="m0 0h15l19 3 15 4 23 11 14 10 11 11 11 15 8 14 6 17 4 23v19l-4 20-5 13-7 14-8 11-9 10-11 11-15 10-17 8-21 6-13 2h-14l-18-3-20-6-17-9-13-10-12-12-11-15-8-15-6-17-3-14v-25l3-17 5-17 8-17 8-12 11-13 10-8 13-8 12-6 17-5z" fill="#FDFDFD"></path>
    <path transform="translate(515,230)" d="m0 0 18 1 20 4 16 6 15 8 12 9 16 16 9 14 7 15 6 21 2 18-2 22-5 19-9 19-12 17-16 16-17 11-17 8-16 5-19 3-18-1-19-5-20-8-16-10-14-13-10-13-8-13-6-14-6-20-2-10v-22l5-22 8-20 11-18 11-12 10-9 13-8 16-7 20-5z" fill="#FDFDFD"></path>
    <path transform="translate(121,549)" d="m0 0h19l17 3 18 6 17 9 11 8 15 15 10 15 6 12 7 21 3 15v14l-2 14-5 17-9 19-10 14-11 12-14 11-14 8-18 7-14 3-10 1h-13l-17-3-21-7-19-10-11-9-11-11-10-14-8-16-6-18-3-15v-15l3-17 5-16 5-12 11-18 12-13 10-9 13-8 16-7 15-4z" fill="#FDFDFD"></path>
    <path transform="translate(321,739)" d="m0 0h32l21 5 16 7 15 9 10 8 8 8 11 16 8 16 6 26v23l-4 19-6 16-9 17-9 11-6 7-14 11-21 11-17 5-17 3h-20l-20-4-20-8-13-8-10-8-8-8-11-15-8-15-6-18-3-14v-27l5-21 7-16 7-11 9-11 9-9 14-10 16-8 17-5z" fill="#FDFDFD"></path>
    <path transform="translate(1326,967)" d="m0 0h12l17 2 18 6 16 9 14 12 11 14 8 14 7 21 2 12v10l-3 21-5 15-7 13-9 11-5 6-11 9-11 7-15 7-21 5h-21l-15-3-16-6-11-6-12-9-10-9-10-13-9-19-4-12-2-11v-18l3-14 6-16 7-12 9-12 11-12 15-10 16-7 16-4z" fill="#FDFDFD"></path>
    <path transform="translate(1871,732)" d="m0 0h22l15 3 15 5 13 7 11 8 12 11 10 14 7 14 5 18 1 6v22l-4 18-5 12-8 13-10 12-8 7-14 10-16 7-19 5-7 1h-15l-15-3-19-7-14-8-12-11-8-8-7-10-8-16-5-17-2-13v-12l3-16 6-16 7-12 9-12 8-8 14-10 16-8 17-5z" fill="#FDFDFD"></path>
    <path transform="translate(1040,126)" d="m0 0h84l35 2 44 4 57 8 44 9 26 7 20 8 11 6 5 4-1 5-9 7-8 2h-10l-46-7-40-7-49-6-35-3-35-2-27-1h-90l-50 2-45 3-66 7-59 8-43 7-48 9-54 11-8 2-10-3-1-3 12-4 18-7 27-9 66-18 39-9 47-10 47-8 55-7 43-4 29-2z" fill="#FDFDFD"></path>
    <path transform="translate(1724,980)" d="m0 0 2 1 6 24 2 14v16l-4 20-6 16-8 15-10 13-11 12-13 13-11 9-16 12-18 12-20 12-16 9-22 11-28 12-29 11-55 19-26 8-56 14-31 6-37 7-9 2h-5l1-3 29-11 31-12 30-13 29-13 35-16 54-27 23-13 20-12 22-14 20-13 12-8 14-10 14-11 28-24 21-21 9-11 10-13 8-13 8-17z" fill="#FDFDFD"></path>
    <path transform="translate(132,819)" d="m0 0 2 1 1 14 6 23 10 25 10 19 12 20 8 11 11 13 13 13 11 9 9 8 18 13 16 10 20 13 15 9 28 15 25 13 24 11 19 8 2 1v2l-13-1-56-10-44-11-29-9-20-7-25-11-21-11-24-15-16-13-16-16-11-15-8-15-6-18-3-19v-13l3-15 5-15 10-18 10-14z" fill="#FDFDFD"></path>
    <path transform="translate(488,1057)" d="m0 0h15l13 4 11 6 10 9 8 14 5 17v8l-4 16-7 13-5 6-12 9-14 6-8 2h-13l-13-4-14-7-11-11-6-10-5-15v-18l5-13 6-10 6-7 14-9 13-5z" fill="#FDFDFD"></path>
    <path transform="translate(1475,849)" d="m0 0h2l-2 9-3 16v10l3 10 6 8 7 6 17 9 35 10 1 1-1 9-6 9-6 7-10 7-18 7-5 1h-12l-14-3-15-8-10-10-7-11-5-13-1-4v-15l4-16 7-11 14-14 12-9z" fill="#FDFDFD"></path>
    <path transform="translate(1013,876)" d="m0 0h33l25 4 1 4-12 14-15 15-14 10-16 8-16 5-11 2h-27l-16-3-16-6-15-8v-4l11-11 14-9 16-8 15-5 22-5z" fill="#FDFDFD"></path>
    <path transform="translate(1515,582)" d="m0 0 4 1v7l-3 24-3 21-4 8-9 11-12 10-23 13h-4l1-17 6-23 5-15 8-15 9-11 7-6 14-7z" fill="#FDFDFD"></path>
    <path transform="translate(1506,846)" d="m0 0 6 1 40 21 4 2-3 6-3 2-5 13-5 1h-8l-23-6-10-4-4-3-1-9 3-10 7-12z" fill="#FDFDFD"></path>
    <path transform="translate(723,599)" d="m0 0 8 1 6 4 7 8 3 7v9l-6 9-9 6h-11l-8-4-7-8-3-7v-8l4-8 7-6z" fill="#FDFDFD"></path>
    <path transform="translate(1146,567)" d="m0 0h8l9 4 7 8 3 7v10l-6 10-7 4-9 1-7-3-6-5-5-9-1-8 4-9 3-5z" fill="#FDFDFD"></path>
    <path transform="translate(1674,910)" d="m0 0h2l-2 4-14 11-19 12-11 5-13 4-6 1h-19l-16-3-15-6-10-7-1-2h7l12 2 11 1h38l18-4 19-7 17-9z" fill="#FDFDFD"></path>
    <path transform="translate(1462,683)" d="m0 0 7 4 7 6 5 10 1 4v13l-3 5-6 1-5-5-6-12-2-8v-13z" fill="#FDFDFD"></path>
  </g>
</svg></svg></g></g></svg>