<?xml version="1.0" encoding="utf-8"?>
<!-- Generator: Adobe Illustrator 23.0.4, SVG Export Plug-In . SVG Version: 6.00 Build 0)  -->
<!DOCTYPE svg PUBLIC "-//W3C//DTD SVG 1.1//EN" "http://www.w3.org/Graphics/SVG/1.1/DTD/svg11.dtd" [
	<!ENTITY ns_flows "http://ns.adobe.com/Flows/1.0/">
	<!ENTITY ns_extend "http://ns.adobe.com/Extensibility/1.0/">
	<!ENTITY ns_ai "http://ns.adobe.com/AdobeIllustrator/10.0/">
	<!ENTITY ns_graphs "http://ns.adobe.com/Graphs/1.0/">
	<!ENTITY ns_vars "http://ns.adobe.com/Variables/1.0/">
	<!ENTITY ns_imrep "http://ns.adobe.com/ImageReplacement/1.0/">
	<!ENTITY ns_sfw "http://ns.adobe.com/SaveForWeb/1.0/">
	<!ENTITY ns_custom "http://ns.adobe.com/GenericCustomNamespace/1.0/">
	<!ENTITY ns_adobe_xpath "http://ns.adobe.com/XPath/1.0/">
]>
<svg version="1.1" xmlns:x="&ns_extend;" xmlns:i="&ns_ai;" xmlns:graph="&ns_graphs;"
	 xmlns="http://www.w3.org/2000/svg" xmlns:xlink="http://www.w3.org/1999/xlink" xmlns:a="http://ns.adobe.com/AdobeSVGViewerExtensions/3.0/"
	 x="0px" y="0px" viewBox="0 0 1000 450" enable-background="new 0 0 1000 450" xml:space="preserve">
<metadata>
	<sfw  xmlns="&ns_sfw;">
		<slices></slices>
		<sliceSourceBounds  bottomLeftOrigin="true" height="7767.5" width="8386.02" x="-5373.366" y="-3119.5"></sliceSourceBounds>
	</sfw>
</metadata>
<g id="FILL-BACKGROUND">
	<rect fill="#FFFFFF" width="1000" height="450"/>
</g>
<g id="N-DIMENSIONS">
</g>
<g id="N-TEXT">
</g>
<g id="AG-DIAGRAM">
	<g id="POLYLINE_1321_">
		<g>
			<g>
				
					<line fill="none" stroke="#E74C3C" stroke-width="3" stroke-linecap="round" stroke-linejoin="round" x1="932.408" y1="393.689" x2="930.408" y2="393.689"/>
				
					<line fill="none" stroke="#E74C3C" stroke-width="3" stroke-linecap="round" stroke-linejoin="round" stroke-dasharray="4.0151,7.0264" x1="923.382" y1="393.689" x2="76.701" y2="393.689"/>
				
					<line fill="none" stroke="#E74C3C" stroke-width="3" stroke-linecap="round" stroke-linejoin="round" x1="73.188" y1="393.689" x2="71.188" y2="393.689"/>
			</g>
		</g>
	</g>
</g>
<g id="AG-DETAIL">
</g>
<g id="AG-PEOPLE">
	<g id="POLYLINE_1066_">
		
			<path fill="none" stroke="#E74C3C" stroke-width="2.25" stroke-linecap="round" stroke-linejoin="round" stroke-miterlimit="10" d="
			M127.802,361.708c0.915-2.113,1.144-4.43,1.865-6.608c0.924-2.791,2.123-5.494,3.389-8.144c2.454-5.138,5.305-10.069,8.363-14.87
			c3.417-5.365,6.796-10.686,9.984-16.189c2.846-4.912,6.502-9.497,10.643-13.383c1.908-1.79,3.547-3.506,4.938-5.741
			c1.498-2.408,2.788-4.951,4.022-7.502c0.364-0.752,0.727-1.504,1.091-2.256"/>
	</g>
	<g id="POLYLINE_1065_">
		
			<path fill="none" stroke="#E74C3C" stroke-width="2.25" stroke-linecap="round" stroke-linejoin="round" stroke-miterlimit="10" d="
			M147.928,274.683c-0.197,2.636-0.558,5.316-1.988,7.597c-1.729,2.757-4.473,4.854-6.638,7.259
			c-4.985,5.537-8.085,12.011-10.463,19.014c-1.378,4.057-2.588,8.158-3.561,12.332"/>
	</g>
	<g id="POLYLINE_1064_">
		
			<path fill="none" stroke="#E74C3C" stroke-width="2.25" stroke-linecap="round" stroke-linejoin="round" stroke-miterlimit="10" d="
			M184.707,257.579c0.736-2.088,1.502-4.208,1.754-6.42"/>
	</g>
	<g id="POLYLINE_1063_">
		
			<path fill="none" stroke="#E74C3C" stroke-width="2.25" stroke-linecap="round" stroke-linejoin="round" stroke-miterlimit="10" d="
			M134.947,245.949c-0.143,2.703,0.397,5.308,1.109,7.9c0.851,3.104,1.771,6.198,2.786,9.253c0.964,2.9,1.965,5.919,3.566,8.542
			c0.615,1.007,1.374,1.981,2.468,2.493c1.389,0.65,3.334,0.746,4.84,0.471"/>
	</g>
	<g id="POLYLINE_1062_">
		
			<path fill="none" stroke="#E74C3C" stroke-width="2.25" stroke-linecap="round" stroke-linejoin="round" stroke-miterlimit="10" d="
			M96.498,100.007c2.137-1.772,2.911-4.07,3.079-6.831c0.259-4.25-1.553-8.253-3.312-12.014c-2.031-4.341-4.513-8.395-7.822-11.885
			c-2.353-2.481-5.163-4.958-8.545-5.862c-2.788-0.745-5.79-0.29-8.362,0.967c-0.402,0.197-0.795,0.413-1.176,0.648"/>
	</g>
	<g id="POLYLINE_1061_">
		
			<path fill="none" stroke="#E74C3C" stroke-width="2.25" stroke-linecap="round" stroke-linejoin="round" stroke-miterlimit="10" d="
			M83.448,99.968c-1.205-0.521-2.301-1.036-3.302-1.897c-1.457-1.252-2.712-2.755-3.884-4.271
			c-2.431-3.145-4.474-6.589-5.861-10.321c-1.39-3.742-2.478-7.969-2.538-11.983c-0.031-2.09,0.434-4.146,1.817-5.76
			c1.701-1.984,4.292-3.206,6.851-3.58c2.583-0.378,5.222,0.155,7.573,1.247c3.352,1.557,5.933,4.211,8.086,7.163
			c2.557,3.507,4.711,7.359,6.464,11.326c1.461,3.307,2.797,6.913,2.721,10.581c-0.043,2.098-0.589,4.174-1.763,5.929
			c-0.377,0.563-0.81,1.085-1.267,1.585"/>
	</g>
	<g id="POLYLINE_1060_">
		
			<path fill="none" stroke="#E74C3C" stroke-width="2.25" stroke-linecap="round" stroke-linejoin="round" stroke-miterlimit="10" d="
			M174.603,110.248c-0.599-0.268-1.439-0.307-1.942-0.731c-0.434-0.366-0.489-0.982-0.553-1.507
			c-0.189-1.534-0.401-2.933-1.299-4.233c-0.546-0.792-1.543-2.038-2.632-1.777c-0.617,0.148-1.061,0.766-1.44,1.226
			c-0.579,0.704-1.149,1.416-1.867,1.986c-0.817,0.648-1.698,0.934-2.729,1.007c-2.032,0.144-4.056-0.058-6.002,0.659
			c-1.52,0.561-2.759,1.321-4.353,0.659c-1.169-0.486-2.053-1.512-3.316-0.81c-1.208,0.672-2.463,1.892-3.093,3.127
			c-0.276,0.54-0.341,1.152-0.603,1.699c-0.341,0.712-0.838,1.366-1.355,1.959c-0.263,0.302-0.541,0.59-0.84,0.857"/>
	</g>
	<g id="POLYLINE_1059_">
		
			<path fill="none" stroke="#E74C3C" stroke-width="2.25" stroke-linecap="round" stroke-linejoin="round" stroke-miterlimit="10" d="
			M143.176,120.323c-0.71-1.572-1.355-3.141-1.918-4.77c-0.193-0.557-0.419-1.076-0.734-1.575c-1.511-2.395-2.899-4.735-3.639-7.512
			c-0.546-2.048-0.447-3.794-0.222-5.849c0.122-1.113-0.582-2.113-0.317-3.215c0.306-1.27,1.461-2.042,1.963-3.204
			c0.27-0.627,0.279-1.327,0.492-1.972c0.223-0.675,0.612-1.288,1.04-1.851c1.426-1.88,3.348-3.267,4.732-5.182
			c0.473-0.654,1.186-0.948,1.839-1.394c0.603-0.412,0.889-0.98,1.37-1.51c0.923-1.017,2.609-1.405,3.889-1.625
			c1.329-0.228,2.212-0.133,3.372,0.494c1.223,0.661,2.538-0.48,3.806-0.045c0.585,0.201,0.88,0.934,1.417,1.109
			c0.442,0.144,0.719-0.331,1.179-0.306c1.53,0.08,2.343,2.184,4,1.977c0.586-0.073,1.293-0.446,1.9-0.255
			c0.673,0.211,0.761,1.011,1.054,1.553c0.852,1.577,2.968,2.036,3.464,3.859c0.202,0.745,0.736,1.017,1.23,1.574
			c0.562,0.634,0.801,1.472,1.171,2.217c0.607,1.222,2.011,1.334,2.464,2.643c0.662,1.913,0.468,4.165,0.287,6.138
			c-0.132,1.438-0.35,2.894-0.273,4.342c0.05,0.946,0.281,1.912,0.15,2.862c-0.204,1.48-1.253,2.674-1.481,4.168
			c-0.217,1.423-0.388,2.831-0.656,4.248"/>
	</g>
	<g id="POLYLINE_1058_">
		
			<path fill="none" stroke="#E74C3C" stroke-width="2.25" stroke-linecap="round" stroke-linejoin="round" stroke-miterlimit="10" d="
			M144.105,124.549c-1.174,0.031-2.087-1.748-2.564-2.616c-0.549-0.998-1.441-1.814-1.777-2.915c-0.222-0.729-0.253-1.5-0.432-2.238
			c-0.175-0.723-0.513-1.339-0.867-1.987c-0.295-0.54-0.891-1.623,0.062-1.893c0.888-0.252,1.916,0.868,2.275,1.55"/>
	</g>
	<g id="POLYLINE_1057_">
		
			<path fill="none" stroke="#E74C3C" stroke-width="2.25" stroke-linecap="round" stroke-linejoin="round" stroke-miterlimit="10" d="
			M111.581,158.345c4.533,4.486,8.682,9.432,13.503,13.614c2.151,1.866,4.622,3.389,6.67,5.365c0.964,0.93,1.595,2.03,1.982,3.302
			c0.845,2.778,1.065,5.729,1.638,8.569c0.566,2.805,1.436,5.526,2.403,8.217c1.116,3.107,2.226,6.195,3.004,9.409
			c0.309,1.278-0.172,1.953-1.102,2.834c-3.787,3.59-7.003,8.21-7.978,13.43c-0.584,3.122-0.13,6.174,0.079,9.303
			c0.067,0.998,0.095,2.007-0.06,2.999c-0.15,0.96-0.542,1.897-0.576,2.873c-0.047,1.333,1.008,2.188,1.735,3.179
			c1.09,1.485,1.42,3.347,2.288,4.95c0.412,0.761,0.986,1.57,1.898,1.722c1.038,0.173,2.121-0.436,2.95-0.986
			c2.199-1.458,3.781-3.621,5.537-5.545c1.423-1.558,2.996-2.893,4.889-3.845c4.859-2.442,10.874-2.759,16.182-1.984
			c2.151,0.314,4.339,0.847,6.232,1.952c1.686,0.984,2.892,2.649,4.588,3.569c1.073,0.582,2.348,0.432,3.496,0.187
			c1.239-0.265,2.721-0.676,3.5-1.761c0.527-0.734,0.816-1.647,1.157-2.473c0.412-1,0.882-1.872,1.426-2.798
			c0.84-1.43,0.786-3.234,0.673-4.834c-0.084-1.187-0.267-2.369-0.231-3.562c0.04-1.332,0.248-2.65,0.199-3.985
			c-0.113-3.11-1.01-6.111-1.422-9.181c-0.134-0.995-0.191-1.99-0.104-2.992c0.08-0.911,0.293-1.86,0.164-2.778
			c-0.193-1.385-0.654-2.221-0.281-3.641c0.47-1.788,0.941-3.161,0.71-5.016c-0.315-2.527,0.096-4.848,0.354-7.373
			c0.651-6.362,0.052-12.777,0.367-19.155c0.154-3.121,0.714-6.168,1.107-9.262c0.376-2.962,0.029-5.716-0.76-8.582
			c-1.728-6.279-4.04-12.391-5.929-18.623c-0.921-3.039-1.688-6.122-2.554-9.177c-0.492-1.734-0.936-3.636-2.023-5.117
			c-0.579-0.789-1.341-1.46-2.198-1.932"/>
	</g>
	<g id="POLYLINE_1056_">
		
			<path fill="none" stroke="#E74C3C" stroke-width="2.25" stroke-linecap="round" stroke-linejoin="round" stroke-miterlimit="10" d="
			M174.748,119.749c1.219-1.8,2.657-4.461,1.987-6.722c-0.16-0.538-0.419-1.042-0.692-1.529"/>
	</g>
	<g id="POLYLINE_1055_">
		
			<path fill="none" stroke="#E74C3C" stroke-width="2.25" stroke-linecap="round" stroke-linejoin="round" stroke-miterlimit="10" d="
			M175.953,150.698c-0.1-2.344-0.17-4.704-0.584-7.018c-0.313-1.752-0.976-3.482-1.03-5.273c-0.043-1.445,0.549-2.72,1.06-4.04
			c0.312-0.805,0.64-1.716,0.437-2.59c-0.187-0.807-0.805-1.474-1.465-1.94"/>
	</g>
	<g id="POLYLINE_1054_">
		
			<path fill="none" stroke="#E74C3C" stroke-width="2.25" stroke-linecap="round" stroke-linejoin="round" stroke-miterlimit="10" d="
			M175.953,150.698c-1.037-2.267-1.641-4.541-2.199-6.964c-0.578-2.508-1.37-4.925-2.246-7.343"/>
	</g>
	<g id="POLYLINE_1053_">
		
			<path fill="none" stroke="#E74C3C" stroke-width="2.25" stroke-linecap="round" stroke-linejoin="round" stroke-miterlimit="10" d="
			M161.993,144.938c1.222,1.436,2.523,2.201,4.373,2.585c1.679,0.348,3.362,0.342,5.065,0.431c0.886,0.046,1.75,0.184,2.517,0.656
			c0.826,0.508,1.489,1.276,2.005,2.088"/>
	</g>
	<g id="POLYLINE_1052_">
		
			<path fill="none" stroke="#E74C3C" stroke-width="2.25" stroke-linecap="round" stroke-linejoin="round" stroke-miterlimit="10" d="
			M142.579,114.371c0.163,2.804,0.413,5.676,1.053,8.416c0.672,2.879,1.775,5.683,3.072,8.335c2.432,4.974,6.498,9.86,11.477,12.443
			c2.724,1.413,6.478,2.497,9.03,0.185c1.453-1.317,2.336-3.172,3.15-4.918c1.273-2.73,3.038-5.376,3.842-8.294
			c0.661-2.399,0.569-4.929,0.563-7.394c-0.008-3.543,0.039-7.091-0.067-10.633c-0.023-0.755-0.055-1.508-0.094-2.262"/>
	</g>
	<g id="POLYLINE_1051_">
		
			<path fill="none" stroke="#E74C3C" stroke-width="2.25" stroke-linecap="round" stroke-linejoin="round" stroke-miterlimit="10" d="
			M142.077,122.895c-1.445,0.214-3.294,0.925-3.713,2.461c-0.461,1.688-0.442,3.207-1.319,4.759
			c-0.909,1.608-1.725,2.478-1.445,4.328c0.256,1.688,0.773,3.197,2.503,3.794c1.168,0.403,2.356,0.634,3.49,1.141
			c1.389,0.621,2.695,1.422,3.948,2.28c2.956,2.024,5.564,4.481,8.289,6.795c2.556,2.171,5.63,5.006,9.175,3.492
			c1.846-0.788,3.372-2.297,5.402-2.626c2.131-0.345,4.508,0.071,6.492,0.876c0.361,0.147,0.715,0.313,1.055,0.504"/>
	</g>
	<g id="POLYLINE_1050_">
		
			<path fill="none" stroke="#E74C3C" stroke-width="2.25" stroke-linecap="round" stroke-linejoin="round" stroke-miterlimit="10" d="
			M118.787,141.31c2.695,0.774,5.782,0.757,8.532,0.283c1.889-0.326,3.216-1.345,4.479-2.739c1.34-1.48,2.591-3.087,3.76-4.704"/>
	</g>
	<g id="POLYLINE_1049_">
		
			<path fill="none" stroke="#E74C3C" stroke-width="2.25" stroke-linecap="round" stroke-linejoin="round" stroke-miterlimit="10" d="
			M183.858,141.742c1.314,1.023,2.617,2.033,4.098,2.807c1.645,0.86,3.395,1.512,5.13,2.16c3.249,1.213,6.966,2.08,9.905,3.985
			c1.561,1.012,2.672,2.49,3.474,4.154c0.495,1.027,2.14,4.644,0.813,5.727c-0.541,0.441-1.44,0.035-1.985-0.192
			c-1.408-0.586-2.856-1.338-4.085-2.245c-0.802-0.592-1.398-1.396-2.169-2.023c-0.81-0.658-1.782-1.136-2.758-1.492
			c-0.399-0.146-1.714-0.708-1.554,0.093c0.136,0.679,1.244,1.475,1.706,1.88c1.303,1.142,2.815,2.045,4.068,3.243
			c0.506,0.484,1.157,1.165,0.988,1.933c-0.378,1.708-2.38,1.447-3.386,0.606c-2.454-2.051-4.514-4.473-7.54-5.732
			c-0.748-0.311-1.524-0.54-2.304-0.754"/>
	</g>
	<g id="POLYLINE_1048_">
		
			<path fill="none" stroke="#E74C3C" stroke-width="2.25" stroke-linecap="round" stroke-linejoin="round" stroke-miterlimit="10" d="
			M177.666,364.904c-0.281-1.449-0.537-2.854-0.443-4.334c0.113-1.791,0.522-3.568,0.973-5.3c1.02-3.919,2.424-7.735,3.909-11.499
			c1.616-4.093,3.341-8.145,4.921-12.251c1.703-4.426,3.175-8.935,4.705-13.423c1.179-3.457,2.483-6.86,3.916-10.219
			c1.767-4.143,3.696-8.262,5.095-12.55c0.838-2.569,1.61-5.371,1.005-8.074c-0.337-1.506-0.741-2.89-0.961-4.423
			c-0.237-1.65-0.768-3.225-1.441-4.746c-3.317-7.496-9.416-13.105-14.089-19.693c-0.528-0.744-0.985-1.531-1.474-2.3"/>
	</g>
	<g id="POLYLINE_1047_">
		
			<path fill="none" stroke="#E74C3C" stroke-width="2.25" stroke-linecap="round" stroke-linejoin="round" stroke-miterlimit="10" d="
			M127.761,160.058c-4.884,0.845-9.748,0.455-14.477-1.069c-1.283-0.413-2.573-0.913-3.523-1.905
			c-1.454-1.516-2.528-3.508-3.6-5.299c-1.59-2.656-3.128-5.345-4.743-7.986c-1.327-2.17-2.843-4.22-3.953-6.516
			c-1.109-2.295-1.994-4.699-2.768-7.125c-0.768-2.412-1.442-4.906-2.676-7.133c-2.334-4.215-6.461-7.175-9.429-10.922
			c-0.636-0.803-0.924-1.532-0.796-2.559c0.186-1.488,0.063-2.259-0.612-3.612c-0.535-1.071-0.695-1.9-0.05-2.959
			c1.074-1.764,2.569-3.523,4.194-4.802c2.434-1.917,5.832-3.115,8.935-3.079c0.867,0.01,2.323,0.113,2.684,1.092
			c0.43,1.168-0.987,2.186-0.849,3.297c0.113,0.911,1.602,0.598,2.203,0.513c1.581-0.225,3.415-1.004,5.035-0.748
			c0.808,0.128,1.329,0.841,1.312,1.648c-0.011,0.511-0.448,0.987-0.442,1.457c0.008,0.603,0.583,0.31,1.082,0.322
			c1.937,0.046,1.825,2.441,0.577,3.351c-0.54,0.394-2.917,1.136-2.766,2.002c0.087,0.497,1.028,0.837,1.314,1.264
			c0.177,0.263,0.281,0.567,0.281,0.886c-0.002,2.153-3.292,2.706-4.026,4.575c-0.307,0.782-0.355,1.929-0.02,2.71
			c0.509,1.187,1.517,2.397,2.3,3.419c0.752,0.981,1.588,1.885,2.475,2.745c1.892,1.834,3.836,3.593,5.512,5.634
			c1.658,2.019,3.15,4.178,4.523,6.399c1.163,1.881,2.05,4.018,3.415,5.762c1.265,1.616,2.948,2.905,4.297,4.46
			c0.981,1.131,1.962,2.338,2.416,3.787c0.706,2.253,0.895,4.687,1.379,6.996c0.559,2.67,1.219,5.352,2.311,7.861
			c0.749,1.721,1.904,3.348,2.341,5.192c0.541,2.28-1.03,3.846-3.311,3.801c-0.796-0.016-1.536-0.294-2.209-0.706"/>
	</g>
	<g id="POLYLINE_1046_">
		
			<path fill="none" stroke="#E74C3C" stroke-width="2.25" stroke-linecap="round" stroke-linejoin="round" stroke-miterlimit="10" d="
			M182.153,253.544c1.281-0.867,2.481-1.589,3.894-2.199c0.725-0.313,1.368-0.682,1.705-1.433c0.385-0.857,0.375-1.892,0.356-2.81
			c-0.047-2.226-0.327-4.449-0.512-6.666c-0.189-2.263-0.203-4.528-0.191-6.797"/>
	</g>
	<g id="POLYLINE_1045_">
		
			<path fill="none" stroke="#E74C3C" stroke-width="2.25" stroke-linecap="round" stroke-linejoin="round" stroke-miterlimit="10" d="
			M158.41,274.833c-1.699,1.253-3.929,2.027-6.05,2.008c-0.606-0.006-1.291-0.079-1.785-0.467c-0.901-0.708-0.926-2.205-1.144-3.21
			c-0.369-1.706-1.2-3.246-1.795-4.875c-0.488-1.337-0.679-2.646-0.756-4.065c-0.111-2.027-0.2-3.747-1.664-5.253
			c-1.285-1.322-2.616-2.42-3.676-3.95c-1.255-1.811-2.385-3.69-3.697-5.464c-0.38-0.514-0.761-1.029-1.141-1.543"/>
	</g>
	<g id="POLYLINE_1044_">
		
			<path fill="none" stroke="#E74C3C" stroke-width="2.25" stroke-linecap="round" stroke-linejoin="round" stroke-miterlimit="10" d="
			M183.783,256.093c-1.831-0.152-3.49-0.373-5.293,0.056c-2.875,0.683-5.636,2.001-8.258,3.335c-2.669,1.358-5.283,2.87-7.707,4.633
			c-2.314,1.683-4.081,3.684-5.789,5.964c-1.79,2.39-4.247,4.038-6.161,6.293"/>
	</g>
	<g id="POLYLINE_1043_">
		
			<path fill="none" stroke="#E74C3C" stroke-width="2.25" stroke-linecap="round" stroke-linejoin="round" stroke-miterlimit="10" d="
			M159.936,369.366c1.554-3.159,2.307-6.247,2.763-9.739c0.57-4.372,0.933-8.771,1.346-13.16c0.778-8.259,0.739-16.69,2.223-24.865
			c0.686-3.779,1.85-7.454,3.468-10.937c1.705-3.671,4.016-6.923,6.152-10.343c1.062-1.701,2.37-3.739,2.199-5.848
			c-0.137-1.691-1.275-3.09-2.408-4.261c-2.845-2.942-6.291-5.315-9.462-7.878c-3.029-2.449-5.756-5.192-8.337-8.105
			c-0.782-0.883-1.564-1.765-2.346-2.648"/>
	</g>
	<g id="POLYLINE_1042_">
		
			<path fill="none" stroke="#E74C3C" stroke-width="2.25" stroke-linecap="round" stroke-linejoin="round" stroke-miterlimit="10" d="
			M160.916,367.313c-1.516,0.218-2.823,0.807-3.725,2.09c-1.684,2.396-2.347,5.668-3.012,8.466
			c-0.814,3.424-1.683,7.198-1.312,10.737c0.153,1.458,0.672,2.826,1.954,3.639c2.207,1.4,5.344,1.395,7.846,1.465
			c4.446,0.125,8.906,0.008,13.354-0.006c7.75-0.023,15.652,0.213,23.366-0.684c3.159-0.367,6.473-1.1,9.142-2.916
			c1.139-0.775,2.14-1.811,2.453-3.191c0.575-2.539-0.933-5.064-3.152-6.232c-2.205-1.161-4.811-1.098-7.229-1.257
			c-2.919-0.192-5.218-1.058-7.754-2.509c-1.858-1.063-3.738-2.093-5.563-3.213c-1.276-0.783-2.598-1.615-3.592-2.755
			c-1.539-1.766-1.753-4.189-3.024-6.095c-1.218-1.826-3.157,0.136-4.366,1.01c-2.977,2.153-5.641,4.736-8.737,6.723
			c-1.375,0.883-3.273,2.08-5.019,1.86c-1.256-0.158-1.882-1.271-2.221-2.382c-0.266-0.87-0.381-1.792-0.39-2.7"/>
	</g>
	<g id="POLYLINE_1041_">
		
			<path fill="none" stroke="#E74C3C" stroke-width="2.25" stroke-linecap="round" stroke-linejoin="round" stroke-miterlimit="10" d="
			M126.01,317.885c-1.499,6.27-3.323,12.437-5.194,18.603c-1.839,6.058-3.434,12.312-6.085,18.081
			c-0.625,1.36-1.313,2.691-2.07,3.982c-0.377,0.642-0.77,1.276-1.178,1.899c-0.353,0.538-1.168,1.318-1.333,1.926
			c-0.123,0.455,0.168,1.316,0.26,1.769c0.099,0.486,0.219,0.968,0.367,1.442c0.228,0.729,0.52,1.444,0.916,2.099
			c1.127,1.868,3.151,3.162,5.373,3.041c4.148-0.226,7.471-4.043,9.594-7.206c0.398-0.593,0.773-1.201,1.143-1.812
			c0.46,1.625,0.335,3.004,0.306,4.672c-0.027,1.573,0.561,2.83,1.589,3.999c3.275,3.723,8.055,4.915,12.184,7.338
			c2.423,1.422,4.936,2.895,7.161,4.615c0.682,0.527,1.273,1.145,1.565,1.972c0.685,1.938,0.067,4.495-1.108,6.115
			c-1.875,2.585-5.589,3.101-8.526,3.204c-4.811,0.168-9.41-0.728-13.784-2.713c-2.781-1.262-5.503-2.657-8.329-3.82
			c-2.717-1.118-5.523-1.823-8.341-2.629c-2.886-0.825-5.748-2.079-7.218-4.855c-1.735-3.277-1.292-7.801-0.015-11.133
			c0.777-2.028,2.114-3.695,3.47-5.366c0.716-0.882,1.404-1.826,2.227-2.615c0.337-0.323,0.787-0.763,1.294-0.754
			c0.491,0.009,0.867,0.435,1.155,0.788"/>
	</g>
	<g id="POLYLINE_1040_">
		
			<path fill="none" stroke="#E74C3C" stroke-width="2.25" stroke-linecap="round" stroke-linejoin="round" stroke-miterlimit="10" d="
			M183.783,256.093c-0.767-1.054-1.461-2.169-2.047-3.333c-0.601-1.193-0.965-2.475-1.492-3.699
			c-1.162-2.697-2.891-5.158-4.679-7.471c-1.156-1.495-2.376-2.939-3.615-4.365"/>
	</g>
	<g id="POLYLINE_1039_">
		
			<path fill="none" stroke="#E74C3C" stroke-width="2.25" stroke-linecap="round" stroke-linejoin="round" stroke-miterlimit="10" d="
			M859.84,393.517c7.159-0.258,14.327,0.002,21.487,0.12c2.988,0.049,5.987,0.07,8.973-0.103c2.524-0.146,5.178-0.368,7.548-1.315
			c2.338-0.934,4.531-3.35,4.671-5.963c0.083-1.548-0.532-2.758-1.266-4.056c-0.808-1.427-0.551-3.107-0.943-4.654
			c-0.447-1.766-1.843-3.238-2.626-4.875c-0.647-1.352-1.48-3.968-3.039-4.651c-0.234-0.102-0.483-0.135-0.738-0.103"/>
	</g>
	<g id="POLYLINE_1038_">
		
			<path fill="none" stroke="#E74C3C" stroke-width="2.25" stroke-linecap="round" stroke-linejoin="round" stroke-miterlimit="10" d="
			M876.429,356.057c1.501,2.899,1.992,6.273,1.405,9.488c-0.292,1.601-0.93,3.405-2.519,4.126c-1.085,0.492-2.508,0.521-3.606,0.046
			c-0.796-0.345-1.18-1.023-1.733-1.655c-0.637-0.728-1.464-1.265-2.284-1.763c-1.749-1.062-3.563-2.018-5.329-3.052
			c-0.551-0.323-1.287-0.83-1.967-0.685c-0.754,0.161-1.151,1.033-1.41,1.675c-0.631,1.563-0.914,3.241-1.573,4.799
			c-0.634,1.5-1.537,2.842-2.457,4.177c-1.233,1.789-2.443,3.599-3.752,5.334c-1.983,2.627-4.185,4.889-7.212,6.282
			c-1.715,0.789-3.685,1.436-4.426,3.351c-0.454,1.174-0.466,2.665,0.279,3.727c1.286,1.832,4.351,1.777,6.312,1.806
			c4.178,0.06,8.389,0.028,12.565-0.144c2.271-0.093,5.198-0.052,7.133-1.494c1.534-1.143,1.962-3.241,2.744-4.868
			c0.669-1.393,1.561-2.812,3.003-3.501c1.164-0.557,2.493-0.699,3.728-1.021c1.284-0.335,2.486-0.842,3.638-1.497
			c2.275-1.295,5.062-3.152,6.366-5.517c0.656-1.19,0.391-2.468-0.114-3.663c-0.45-1.064-1.053-2.043-1.321-3.176
			c-0.26-1.099-0.322-2.236-0.688-3.31c-0.51-1.496-1.426-2.834-2.247-4.17c-0.921-1.498-1.795-3.093-2.949-4.43
			C877.533,356.364,877.157,356.123,876.429,356.057z"/>
	</g>
	<g id="POLYLINE_1037_">
		
			<path fill="none" stroke="#E74C3C" stroke-width="2.25" stroke-linecap="round" stroke-linejoin="round" stroke-miterlimit="10" d="
			M885.431,375.489c2.269,0.295,4.707,0.479,6.591-1.054c1.218-0.991,2.015-2.462,2.361-3.978c0.225-0.987-0.113-1.865-0.607-2.729
			c-1-1.748-2.023-3.454-2.831-5.305c-1.832-4.196-3.076-8.661-4.339-13.053c-1.186-4.125-2.299-8.273-3.375-12.428
			c-1.32-5.098-2.553-10.226-4.013-15.286c-1.251-4.337-2.793-8.575-4.61-12.707c-1.757-3.995-3.645-8.134-6.278-11.639
			c-1.413-1.881-3.006-3.283-3.327-5.687c-0.272-2.039-0.068-4.156,0.068-6.198c0.144-2.153,0.384-4.3,0.632-6.443
			c0.151-1.306,0.302-2.611,0.453-3.917"/>
	</g>
	<g id="POLYLINE_1036_">
		
			<path fill="none" stroke="#E74C3C" stroke-width="2.25" stroke-linecap="round" stroke-linejoin="round" stroke-miterlimit="10" d="
			M758.648,138.022c-2.548,0.142-4.837-0.473-6.94-1.938c-1.49-1.038-2.741-2.399-3.491-4.064c-1.089-2.417-1.34-5.381-0.723-7.954
			c0.425-1.769,1.367-3.317,2.605-4.638c2.343-2.499,5.5-4.298,8.742-5.354c3.194-1.04,6.624-1.36,9.964-1.061
			c2.826,0.253,5.784,0.925,8.111,2.629c1.967,1.441,3.256,3.612,4.038,5.89c0.656,1.913,0.998,3.985,0.505,5.975
			c-0.481,1.944-1.617,3.936-3.131,5.265c-0.355,0.312-0.743,0.584-1.139,0.842"/>
	</g>
	<g id="POLYLINE_1035_">
		
			<path fill="none" stroke="#E74C3C" stroke-width="2.25" stroke-linecap="round" stroke-linejoin="round" stroke-miterlimit="10" d="
			M772.047,144.325c0.393,1.018,0.848,2.03,1.183,3.068c0.09,0.278,0.166,0.532,0.133,0.83c-0.066,0.613-0.474,0.897-1.009,1.121
			c-1.013,0.423-2.164,0.633-3.252,0.725c-0.553,0.047-1.581,0.211-1.971-0.286c-0.17-0.216-0.158-0.569-0.182-0.827
			c-0.115-1.21-0.165-2.429-0.247-3.642"/>
	</g>
	<g id="POLYLINE_1034_">
		
			<path fill="none" stroke="#E74C3C" stroke-width="2.25" stroke-linecap="round" stroke-linejoin="round" stroke-miterlimit="10" d="
			M849.371,88.947c2.744,2.694,4.611,6.041,7.081,8.966c1.017,1.205,1.869,2.445,2.814,3.692c0.424,0.56,0.918,0.898,1.599,1.077
			c1.306,0.342,2.441,0.444,3.685,1.019"/>
	</g>
	<g id="POLYLINE_1033_">
		
			<path fill="none" stroke="#E74C3C" stroke-width="2.25" stroke-linecap="round" stroke-linejoin="round" stroke-miterlimit="10" d="
			M813.732,86.835c-2.269-4.719-2.728-10.238-0.979-15.2c1.421-4.032,4.29-8.039,8.234-9.896c4.375-2.06,9.913-2.285,14.555-1.111
			c3.704,0.937,6.735,3.123,8.707,6.419c1.289,2.156,2.126,4.542,3.38,6.723c0.721,1.255,1.031,2.697,1.118,4.132
			c0.026,0.426,0.03,0.854,0.004,1.28"/>
	</g>
	<g id="POLYLINE_1032_">
		
			<path fill="none" stroke="#E74C3C" stroke-width="2.25" stroke-linecap="round" stroke-linejoin="round" stroke-miterlimit="10" d="
			M772.775,143.684c1.466,0.452,2.936,0.768,4.408,1.169c0.584,0.159,1.045,0.455,1.465,0.892c2.018,2.105,2.897,5.106,4.735,7.363
			c0.551,0.677,1.29,1.193,1.8,1.899c0.517,0.716,0.659,1.628,0.959,2.44c1.023,2.763,3.17,5.166,5.203,7.235
			c2.141,2.179,4.599,4.66,7.329,6.092c1.232,0.646,2.504,0.757,3.806,0.212c2.487-1.041,4.439-3.409,6.277-5.283
			c2.643-2.695,5.187-5.501,7.541-8.453c2.19-2.747,4.212-5.628,5.78-8.779c1.227-2.466,2.138-5.355,4.232-7.259
			c0.528-0.48,1.109-0.897,1.68-1.323"/>
	</g>
	<g id="POLYLINE_1031_">
		
			<path fill="none" stroke="#E74C3C" stroke-width="2.25" stroke-linecap="round" stroke-linejoin="round" stroke-miterlimit="10" d="
			M800.221,153.527c5.646-4.321,9.392-10.693,11.417-17.425c1.622-5.393,2.717-12.097,7.447-15.764
			c1.566-1.214,3.37-2.112,5.137-2.991c1.759-0.875,3.566-1.668,5.452-2.227"/>
	</g>
	<g id="POLYLINE_1030_">
		
			<path fill="none" stroke="#E74C3C" stroke-width="2.25" stroke-linecap="round" stroke-linejoin="round" stroke-miterlimit="10" d="
			M895.301,235.534c-1.765,4.38-4.188,8.282-6.885,12.147c-2.812,4.031-5.848,7.91-8.961,11.711
			c-3.396,4.147-6.91,8.192-10.399,12.26c-2.866,3.341-5.795,6.69-8.152,10.42c-1.322,2.091-3.336,5.112-2.855,7.763
			c0.159,0.878,0.686,1.611,1.243,2.285c1.461,1.769,2.989,3.437,4.269,5.351c2.479,3.705,4.004,7.855,5.181,12.132
			c1.29,4.688,2.289,9.468,3.251,14.232c0.971,4.808,1.857,9.646,2.378,14.526c0.503,4.712,0.49,9.495,1.333,14.166
			c0.214,1.183,0.475,2.356,0.726,3.531"/>
	</g>
	<g id="POLYLINE_1029_">
		
			<path fill="none" stroke="#E74C3C" stroke-width="2.25" stroke-linecap="round" stroke-linejoin="round" stroke-miterlimit="10" d="
			M843.458,232.681c-0.86,4.115-1.574,8.249-2.147,12.415c-0.551,4.007-1.067,8.067-1.063,12.118
			c0.002,2.23,0.231,4.438,0.467,6.652"/>
	</g>
	<g id="POLYLINE_1028_">
		
			<path fill="none" stroke="#E74C3C" stroke-width="2.25" stroke-linecap="round" stroke-linejoin="round" stroke-miterlimit="10" d="
			M893.216,240.141c2.297-0.379,4.519-1.363,6.468-2.618c1.088-0.701,2.355-1.608,2.101-3.055c-0.184-1.048-0.633-2.055-0.883-3.092
			c-0.356-1.478-0.628-2.976-0.877-4.475c-0.521-3.131-0.818-6.28-1.222-9.426c-0.385-3-1.39-5.92-2.726-8.625"/>
	</g>
	<g id="POLYLINE_1027_">
		
			<path fill="none" stroke="#E74C3C" stroke-width="2.25" stroke-linecap="round" stroke-linejoin="round" stroke-miterlimit="10" d="
			M857.157,224.754c0.96,1.063,1.626,2.322,1.805,3.751c0.134,1.071,0.286,2.235,0.244,3.317c-0.01,0.26-0.39,1.979,0.163,1.994
			c0.322,0.009,0.971-0.827,1.136-0.981c0.314-0.295,0.637-0.581,0.989-0.832c0.707-0.504,1.501-0.852,2.351-1.029
			c2.758-0.574,5.642,0.078,8.43-0.119c1.961-0.139,3.702-0.743,5.358-1.79c1.225-0.775,2.325-1.9,3.628-2.527
			c0.882-0.425,2.229-0.191,3.192-0.272c0.81-0.068,2.091-0.514,2.89-0.149c0.768,0.351,0.936,1.712,1.218,2.393
			c0.883,2.129,2.119,4.409,4.029,5.798c1.141,0.831,2.525,1.305,3.929,1.413c0.634,0.048,1.268,0.018,1.894-0.094
			c0.767-0.137,1.577-0.519,2.372-0.415c0.329,0.043,0.643,0.186,0.941,0.323"/>
	</g>
	<g id="POLYLINE_1026_">
		
			<path fill="none" stroke="#E74C3C" stroke-width="2.25" stroke-linecap="round" stroke-linejoin="round" stroke-miterlimit="10" d="
			M844.982,211.134c-0.662,0.504-1.231,0.926-1.324,1.79c-0.122,1.146,0.256,2.351,0.423,3.47c0.34,2.273-0.483,4.428-0.253,6.681
			c0.119,1.168,0.483,2.369,0.229,3.544c-0.219,1.015-0.704,1.946-0.893,2.975c-0.155,0.841-0.268,1.826,0.057,2.642
			c0.355,0.891,1.283,1.535,1.96,2.145c2.525,2.277,5.638,3.67,8.98,4.268c0.499,0.089,1.001,0.157,1.506,0.202"/>
	</g>
	<g id="POLYLINE_1025_">
		
			<path fill="none" stroke="#E74C3C" stroke-width="2.25" stroke-linecap="round" stroke-linejoin="round" stroke-miterlimit="10" d="
			M860.861,362.564c0.559-4.795,0.646-9.405-0.716-14.086c-1.36-4.674-3.463-9.092-5.229-13.617
			c-1.841-4.719-3.257-9.584-4.976-14.345c-1.608-4.452-3.612-8.721-5.927-12.848c-2.322-4.138-4.866-8.155-7.756-11.922
			c-1.962-2.557-3.898-4.931-3.909-8.292c-0.013-4.109,1.549-8.347,2.996-12.132c1.742-4.555,3.992-8.885,6.296-13.176
			c2.3-4.283,4.725-8.503,7.197-12.688c2.537-4.294,5.284-8.409,8.141-12.496c0.738-1.055,1.483-2.105,2.231-3.153"/>
	</g>
	<g id="POLYLINE_1024_">
		
			<path fill="none" stroke="#E74C3C" stroke-width="2.25" stroke-linecap="round" stroke-linejoin="round" stroke-miterlimit="10" d="
			M843.384,96.946c-0.563,1.362-1.152,2.707-2.007,3.915c-1.044,1.475-2.398,2.712-3.753,3.894
			c-1.366,1.192-2.705,2.464-4.161,3.545c-0.58,0.43-1.212,0.726-1.91,0.906c-1.213,0.313-2.504,0.386-3.752,0.38
			c-0.748-0.004-1.551-0.005-2.249-0.311c-0.596-0.261-1.067-0.727-1.492-1.207c-1.202-1.357-2.153-2.934-3.21-4.401
			c-1.657-2.3-3.821-4.429-4.747-7.168c-0.53-1.568-0.651-3.225-0.979-4.838c-0.314-1.546-0.923-3.009-1.319-4.533
			c-0.859-3.307-1.259-7.03-1.04-10.444c0.093-1.452,0.432-2.871,1.291-4.068c0.811-1.129,1.967-2.02,3.249-2.553
			c2.222-0.923,4.62-0.443,6.951-0.528c1.994-0.073,4.316-1.122,6.196-0.047c1.864,1.066,2.502,3.481,3.642,5.15
			c1.174,1.719,2.838,1.914,4.617,2.762c1.388,0.661,1.828,1.791,2.127,3.222c0.304,1.452,0.563,2.881,1.157,4.249
			c0.166,0.381,0.716,1.827,0.993,0.977c0.307-0.94-0.085-2.07,0.239-3.052c0.257-0.78,0.833-1.13,1.276-1.769
			c0.718-1.039,1.291-2.88,2.945-2.592c1.461,0.255,2.171,1.886,2.501,3.156c0.893,3.433,0.6,8.685-3.816,9.336
			c-0.771,0.114-1.241-0.084-1.754-0.657"/>
	</g>
	<g id="POLYLINE_1023_">
		
			<path fill="none" stroke="#E74C3C" stroke-width="2.25" stroke-linecap="round" stroke-linejoin="round" stroke-miterlimit="10" d="
			M863.745,103.933c-1.313,1.01-2.516,2.364-3.045,3.957c-0.843,2.537-0.649,5.412-0.684,8.053c-0.035,2.656-0.07,5.313-0.106,7.969
			c-0.008,0.623-0.186,1.513-0.028,2.122c0.124,0.478,0.635,1.04,0.935,1.436c1.539,2.037,3.641,3.781,5.987,4.801
			c2.292,0.995,4.753,1.401,7.233,1.101"/>
	</g>
	<g id="POLYLINE_1022_">
		
			<path fill="none" stroke="#E74C3C" stroke-width="2.25" stroke-linecap="round" stroke-linejoin="round" stroke-miterlimit="10" d="
			M832.051,109.059c0.361,0.942,0.794,1.86,1.26,2.755c0.198,0.381,0.498,0.765,0.654,1.161c0.153,0.39,0.095,0.369-0.278,0.621
			c-0.816,0.551-1.763,0.957-2.716,1.2"/>
	</g>
	<g id="POLYLINE_1021_">
		
			<path fill="none" stroke="#E74C3C" stroke-width="2.25" stroke-linecap="round" stroke-linejoin="round" stroke-miterlimit="10" d="
			M847.207,90.625c0.103,2.698,0.762,5.261,1.53,7.837c0.562,1.882,0.924,3.123,0.513,5.043c-0.602,2.809-1.65,5.499-2.217,8.325
			c-0.556,2.774-0.725,5.55-0.758,8.373c-0.031,2.634,0.044,5.311-0.624,7.881c-0.696,2.68-1.894,5.184-2.356,7.93
			c-0.496,2.946-0.523,5.959-0.717,8.933c-0.19,2.918-0.857,5.555-1.568,8.376c-0.349,1.383-0.463,2.8-0.023,4.18
			c0.098,0.309,0.349,1.201,0.81,1.047c0.38-0.126,0.558-1.263,0.631-1.549c0.534-2.074,0.857-4.258,1.923-6.148
			c0.89-1.578,2.282-2.84,2.974-4.532c0.907-2.215,0.954-4.775,1.278-7.11c0.339-2.44,0.908-4.938,1.954-7.179
			c0.265-0.568,1.094-2.386,1.8-1.307c0.765,1.169,0.55,3.284,0.416,4.552c-0.055,0.522-0.146,1.036-0.264,1.547
			c-0.106,0.459-0.399,1.034-0.376,1.505c0.032,0.671,0.462,0.03,0.733-0.301c1.557-1.9,2.588-4.329,3.257-6.675
			c0.724-2.538,0.8-5.15,0.883-7.77c0.089-2.811,0.332-5.543,0.923-8.298c0.315-1.468,0.697-2.92,1.071-4.374"/>
	</g>
	<g id="POLYLINE_1020_">
		
			<path fill="none" stroke="#E74C3C" stroke-width="2.25" stroke-linecap="round" stroke-linejoin="round" stroke-miterlimit="10" d="
			M848.944,137.2c1.366-1.232,2.678-2.495,3.898-3.873"/>
	</g>
	<g id="POLYLINE_1019_">
		
			<path fill="none" stroke="#E74C3C" stroke-width="2.25" stroke-linecap="round" stroke-linejoin="round" stroke-miterlimit="10" d="
			M856.703,128.555c0.735-0.965,1.681-1.879,1.789-3.127c0.139-1.599,0.002-3.239,0.005-4.84c0.006-3.7,0.207-7.452,0.644-11.127
			c0.199-1.671,0.689-3.403,1.911-4.63c0.41-0.412,0.884-0.707,1.455-0.832c0.37-0.081,0.738-0.033,1.108-0.072
			c0.561-0.058,1.124-0.291,1.687-0.4c2.438-0.47,5.364-0.329,7.754,0.34c1.588,0.444,2.941,1.328,4.132,2.456
			c2.432,2.304,4.321,5.207,6.078,8.036c1.978,3.186,3.815,6.46,5.511,9.804c3.442,6.787,6.192,13.905,9.628,20.692
			c1.479,2.921,3.563,5.133,5.765,7.524c2.351,2.552,4.379,5.319,6.262,8.23c3.999,6.184,7.874,12.489,11.615,18.832
			c2.159,3.66,4.254,7.367,6.5,10.975c1.444,2.32,3.334,4.299,4.407,6.823c2.398,5.642,9.097,7.405,12.952,11.714
			c2.153,2.406,3.841,5.358,5.429,8.15c0.926,1.627,1.283,3.209,1.062,5.072c-0.207,1.75-0.597,3.513-0.949,5.239
			c-0.12,0.588-0.278,1.2-0.674,1.669c-0.857,1.015-1.885,0.872-2.607-0.16c-0.813-1.162-1.207-2.326-0.844-3.729
			c0.452-1.746,1.002-3.443,0.169-5.184c-0.875-1.829-3.197-2.966-4.876-3.868c-0.577-0.31-1.836-1.144-2.552-0.957
			c-0.674,0.176-0.084,0.867,0.187,1.226c1.491,1.969,3.953,3.434,5.02,5.699c0.369,0.784,0.523,2.151-0.461,2.567
			c-1.312,0.555-2.521-0.916-3.188-1.805c-0.838-1.115-1.605-2.25-2.584-3.249c-1.254-1.28-2.693-2.352-4.1-3.453
			c-1.97-1.542-3.958-3.168-5.114-5.433c-1.059-2.074-1.031-4.395-1.909-6.506c-1.226-2.946-3.54-5.535-5.529-7.988
			c-2.201-2.714-4.482-5.38-6.916-7.889c-2.756-2.842-5.547-5.639-8.045-8.715c-2.32-2.856-4.555-5.672-7.19-8.246
			c-2.451-2.394-4.709-4.979-6.447-7.946c-1.763-3.011-2.964-6.305-4.865-9.241c-1.995-3.082-4.091-6.02-5.871-9.24
			c-1.707-3.088-3.926-5.553-6.247-8.19c-2.174-2.47-4.002-5.21-6.248-7.62"/>
	</g>
	<g id="POLYLINE_1018_">
		
			<path fill="none" stroke="#E74C3C" stroke-width="2.25" stroke-linecap="round" stroke-linejoin="round" stroke-miterlimit="10" d="
			M842.844,140.342c-3.08,0.441-6.755,0.761-9.417-1.209c-1.423-1.053-2.501-2.589-3.402-4.088
			c-0.891-1.482-0.758-3.211-0.674-4.889c0.162-3.208,0.663-6.4,1.064-9.583c0.166-1.318,0.289-2.639,0.408-3.962
			c0.045-0.492,0.522-1.929-0.212-1.977c-0.534-0.035-0.89,0.428-0.992,0.849c-0.348,1.442-0.427,3.041-0.618,4.51
			c-0.405,3.12-0.83,6.24-1.179,9.368c-0.294,2.63-0.643,5.35-0.399,7.998c0.188,2.041,1.061,3.553,2.064,5.297
			c1.862,3.235,0.881,6.461,0.367,9.992c-0.521,3.574-0.808,7.549,1.228,10.726c1.189,1.856,2.919,3.224,4.66,4.532
			c1.382,1.038,2.831,2.063,3.8,3.524c0.812,1.223,1.298,2.647,1.481,4.099c0.162,1.28,0.177,2.567,0.413,3.839
			c0.241,1.307,0.585,2.596,0.932,3.878c0.736,2.717,1.584,5.414,1.859,8.228c0.274,2.796,0.258,5.613,0.644,8.399
			c0.297,2.147,1.063,4.289,1.001,6.474c-0.043,1.504-0.848,2.867-0.91,4.346c-0.045,1.066,0.849,1.591,1.424,2.372
			c0.846,1.149,1.305,2.588,2.4,3.55c2.395,2.103,6.605,1.568,9.478,1.406c6.887-0.389,13.767-1.215,20.636-1.842
			c4.567-0.417,9.582-0.416,13.716-2.643c1.71-0.921,4.483-2.806,3.269-5.092c-0.788-1.484-1.927-2.489-2.199-4.216
			c-0.12-0.76-0.111-1.578-0.414-2.299c-0.232-0.552-0.641-1.004-0.939-1.519c-0.945-1.631-1.081-3.657-1.601-5.439
			c-0.829-2.842-2.493-5.27-3.931-7.822c-1.219-2.165-2.099-4.436-2.357-6.92c-0.276-2.656-0.076-5.353,0.024-8.013
			c0.236-6.27,0.456-12.561,0.29-18.836c-0.068-2.587-0.377-4.993-1.182-7.457"/>
	</g>
	<g id="POLYLINE_1017_">
		
			<path fill="none" stroke="#E74C3C" stroke-width="2.25" stroke-linecap="round" stroke-linejoin="round" stroke-miterlimit="10" d="
			M802.314,155.106c-3.183-2.373-6.453-4.675-9.366-7.384c-1.892-1.759-3.246-3.454-4.098-5.877
			c-0.729-2.071-2.158-3.346-3.91-4.635c-1.808-1.33-3.92-3.183-6.213-3.603c-2.205-0.404-4.103,1.137-6.079,1.806
			c-0.92,0.312-1.821,0.325-2.784,0.315c-1.122-0.012-2.119,0.16-3.208,0.438c-2.138,0.546-4.297,1.01-6.447,1.501
			c-0.364,0.083-1.065,0.099-1.379,0.315c-0.214,0.147-0.187,0.17-0.194,0.478c-0.007,0.312,0.062,0.636,0.232,0.9
			c0.421,0.654,1.301,0.939,1.884,1.418c0.772,0.635,1.263,1.526,1.934,2.255c2.417,2.624,6.39,3.076,9.443,1.247
			c0.254-0.152,0.494-0.319,0.64-0.584"/>
	</g>
</g>
<g id="AG-SPORTS">
	<g id="POLYLINE_858_">
		
			<path fill="none" stroke="#E74C3C" stroke-width="2.25" stroke-linecap="round" stroke-linejoin="round" stroke-miterlimit="10" d="
			M345.119,164.734c0-3.536-4.59-5.163-6.818-2.419c-2.198,2.708,0.247,6.828,3.678,6.193
			C343.776,168.176,345.119,166.561,345.119,164.734z"/>
	</g>
	<g id="POLYLINE_319_">
		
			<line fill="none" stroke="#E74C3C" stroke-width="2.25" stroke-linecap="round" stroke-linejoin="round" stroke-miterlimit="10" x1="333.734" y1="276.575" x2="251.937" y2="253.474"/>
	</g>
	<g id="POLYLINE_318_">
		
			<line fill="none" stroke="#E74C3C" stroke-width="2.25" stroke-linecap="round" stroke-linejoin="round" stroke-miterlimit="10" x1="271.101" y1="253.474" x2="337.004" y2="272.086"/>
	</g>
	<g id="POLYLINE_317_">
		
			<path fill="none" stroke="#E74C3C" stroke-width="2.25" stroke-linecap="round" stroke-linejoin="round" stroke-miterlimit="10" d="
			M350.563,253.474l-100.52,137.983c-0.365,0.509-0.357,1.208,0.036,1.701c0.483,0.607,1.211,0.531,1.906,0.531
			c5.152,0,10.305,0,15.457,0c0.807,0,1.791,0.171,2.338-0.578l101.726-139.637"/>
	</g>
	<g id="POLYLINE_184_">
		
			<line fill="none" stroke="#E74C3C" stroke-width="2.25" stroke-linecap="round" stroke-linejoin="round" stroke-miterlimit="10" x1="327.017" y1="285.795" x2="347.96" y2="285.795"/>
	</g>
	<g id="POLYLINE_183_">
		
			<line fill="none" stroke="#E74C3C" stroke-width="2.25" stroke-linecap="round" stroke-linejoin="round" stroke-miterlimit="10" x1="676.579" y1="285.795" x2="655.636" y2="285.795"/>
	</g>
	<g id="POLYLINE_182_">
		
			<path fill="none" stroke="#E74C3C" stroke-width="2.25" stroke-linecap="round" stroke-linejoin="round" stroke-miterlimit="10" d="
			M653.033,253.474l100.521,137.983c0.365,0.509,0.357,1.208-0.036,1.701c-0.483,0.607-1.211,0.531-1.906,0.531
			c-5.152,0-10.305,0-15.457,0c-0.807,0-1.791,0.171-2.338-0.578L632.091,253.474"/>
	</g>
	<g id="POLYLINE_181_">
		
			<line fill="none" stroke="#E74C3C" stroke-width="2.25" stroke-linecap="round" stroke-linejoin="round" stroke-miterlimit="10" x1="732.496" y1="253.474" x2="666.592" y2="272.086"/>
	</g>
	<g id="POLYLINE_180_">
		
			<line fill="none" stroke="#E74C3C" stroke-width="2.25" stroke-linecap="round" stroke-linejoin="round" stroke-miterlimit="10" x1="669.862" y1="276.575" x2="751.659" y2="253.474"/>
	</g>
	<g id="POLYLINE_179_">
		
			<rect x="501.147" y="206.579" fill="none" stroke="#E74C3C" stroke-width="2.25" stroke-linecap="round" stroke-linejoin="round" stroke-miterlimit="10" width="1.302" height="31.271"/>
	</g>
	<g id="POLYLINE_178_">
		
			<rect x="499.845" y="237.849" fill="none" stroke="#E74C3C" stroke-width="2.25" stroke-linecap="round" stroke-linejoin="round" stroke-miterlimit="10" width="3.906" height="9.115"/>
	</g>
	<g id="POLYLINE_177_">
		
			<polyline fill="none" stroke="#E74C3C" stroke-width="2.25" stroke-linecap="round" stroke-linejoin="round" stroke-miterlimit="10" points="
			499.845,243.057 220.876,243.057 220.876,237.849 782.72,237.849 782.72,243.057 503.751,243.057 		"/>
	</g>
	<g id="POLYLINE_176_">
		
			<polyline fill="none" stroke="#E74C3C" stroke-width="2.25" stroke-linecap="round" stroke-linejoin="round" stroke-miterlimit="10" points="
			503.751,243.057 777.84,243.057 777.84,253.474 225.757,253.474 225.757,243.057 499.845,243.057 		"/>
	</g>
</g>
<g id="AG-OUTLINE">
	<g id="POLYLINE_56_">
		<path fill="none" stroke="#E74C3C" stroke-width="3" stroke-linecap="round" stroke-linejoin="round" stroke-miterlimit="10" d="
			M860.861,362.564c-1.886-0.327-2.412,3.403-2.74,4.485c-1.028,3.394-3.139,6.154-5.141,9.031c-1.824,2.622-3.736,5.377-6.37,7.254
			c-1.229,0.876-2.577,1.456-3.943,2.077c-0.808,0.367-1.625,0.785-2.25,1.429c-1.968,2.03-1.402,5.451,1.351,6.348
			c3.019,0.984,6.644,0.52,9.754,0.497c3.76-0.028,7.511-0.177,11.269-0.258c7.923-0.172,15.848,0.325,23.772,0.227
			c3.351-0.042,6.857-0.107,10.102-1.037c1.495-0.428,2.925-1.102,3.946-2.304c1.038-1.222,1.962-2.848,1.91-4.493
			c-0.026-0.807-0.216-1.628-0.549-2.364c-0.302-0.669-0.792-1.237-1.045-1.929c-0.682-1.863-0.241-3.842-1.34-5.598
			c-0.725-1.159-1.422-2.246-2.012-3.485c-0.578-1.212-1.122-2.489-1.962-3.55c-0.477-0.603-0.84-0.743-1.505-0.991
			c-0.503-0.187-0.776-0.898-1.072-1.41c-0.462-0.799-0.913-1.603-1.325-2.429c-1.674-3.356-2.788-6.976-3.885-10.552
			c-2.379-7.751-4.35-15.627-6.382-23.475c-1.87-7.223-3.851-14.323-6.87-21.169c-1.512-3.429-3.146-6.853-5.174-10.011
			c-1.233-1.919-3.224-3.528-4.031-5.686c-0.895-2.391-0.463-5.277-0.298-7.75c0.122-1.836,0.321-3.669,0.522-5.498
			c0.128-1.161,0.268-2.32,0.402-3.48c0.046-0.396,0.011-0.968,0.155-1.341c0.137-0.354,0.564-0.707,0.81-0.998
			c5.158-6.132,10.467-12.122,15.449-18.4c2.361-2.975,4.641-6.021,6.789-9.154c1.079-1.574,2.128-3.172,3.103-4.812
			c0.22-0.369,0.435-0.741,0.645-1.116c0.291-0.519,0.425-0.5,0.968-0.62c0.669-0.147,1.326-0.346,1.968-0.584
			c1.37-0.507,2.704-1.175,3.923-1.98c0.711-0.469,1.604-1.072,1.919-1.907c0.271-0.717-0.037-1.479-0.255-2.167
			c-0.514-1.618-0.878-3.268-1.18-4.939c-0.695-3.85-0.982-7.739-1.58-11.598c-0.449-2.9-1.434-6.081-2.952-8.609
			c-0.573-0.954-1.386-1.759-1.784-2.816c-0.366-0.973-0.294-2.025-0.551-3.02c-0.19-0.732-0.666-1.269-1.047-1.908
			c-0.446-0.747-0.671-1.583-0.878-2.423c-0.428-1.736-0.781-3.473-1.499-5.12c-0.789-1.812-1.855-3.489-2.852-5.191
			c-1.585-2.706-2.618-5.465-2.787-8.618c-0.206-3.821,0.164-7.682,0.282-11.5c0.121-3.932,0.175-7.871,0.149-11.805
			c-0.023-3.408-0.146-6.641-1.213-9.902c1.49,2.633,3.174,5.095,4.879,7.591c1.584,2.319,2.744,4.834,3.966,7.354
			c1.063,2.192,2.32,4.248,3.824,6.167c1.779,2.269,3.894,4.169,5.883,6.242c1.965,2.049,3.651,4.353,5.445,6.548
			c1.865,2.283,3.89,4.402,5.941,6.517c4.089,4.215,8.016,8.586,11.53,13.299c1.228,1.647,2.557,3.402,3.154,5.397
			c0.547,1.825,0.654,3.679,1.486,5.426c1.972,4.138,6.456,6.127,9.509,9.326c1.303,1.365,2.149,3.246,3.631,4.419
			c0.584,0.462,1.565,0.848,2.24,0.326c2.129-1.647-2.077-5.176-2.885-6.007c-0.298-0.306-3.137-2.903-2.223-3.331
			c0.404-0.189,1.264,0.276,1.611,0.429c1.051,0.465,2.048,1.065,3.012,1.687c1.128,0.728,2.378,1.515,2.949,2.788
			c0.501,1.117,0.504,2.418,0.221,3.59c-0.32,1.328-0.879,2.474-0.367,3.82c0.289,0.762,0.922,2.127,1.806,2.298
			c0.795,0.153,1.576-0.571,1.896-1.215c0.273-0.549,0.361-1.177,0.464-1.773c0.246-1.421,0.587-2.827,0.792-4.255
			c0.198-1.382,0.203-2.756-0.321-4.071c-0.902-2.263-2.467-4.393-3.788-6.419c-1.222-1.874-2.592-3.622-4.359-5.014
			c-2.275-1.794-4.855-3.142-7.057-5.039c-1.387-1.195-2.803-2.548-3.616-4.216c-0.346-0.71-0.576-1.47-0.977-2.153
			c-0.551-0.938-1.285-1.767-1.933-2.637c-3.375-4.533-5.911-9.731-8.83-14.556c-3.314-5.479-6.684-10.931-10.083-16.358
			c-1.427-2.278-2.911-4.533-4.57-6.649c-1.725-2.2-3.743-4.131-5.561-6.248c-1.586-1.846-2.683-3.957-3.718-6.148
			c-1.365-2.889-2.653-5.815-3.974-8.724c-2.383-5.248-4.778-10.487-7.639-15.497c-2.591-4.537-5.325-9.705-9.399-13.108
			c-2.506-2.093-5.681-2.446-8.859-2.408c-0.804,0.01-1.609,0.063-2.399,0.218c-0.574,0.113-0.78,0.119-1.344-0.128
			c-0.311-0.136-0.625-0.263-0.954-0.35c-1.142-0.302-2.468-0.165-3.365-1.06c-0.502-0.5-0.816-1.166-1.218-1.741
			c-0.706-1.007-1.568-1.898-2.346-2.849c-1.726-2.108-3.115-4.473-4.852-6.569c-0.344-0.415-0.711-0.808-1.093-1.19
			c-0.165-0.164-0.683-0.531-0.693-0.735c-0.004-0.081,0.156-0.232,0.186-0.314c0.168-0.467,0.389-0.887,0.506-1.378
			c0.397-1.676,0.327-3.518-0.031-5.191c-0.12-0.56-0.278-1.117-0.514-1.64c-0.22-0.488-0.689-0.944-0.779-1.422
			c-0.152-0.803-0.039-1.684-0.189-2.507c-0.128-0.702-0.311-1.402-0.609-2.052c-0.336-0.733-0.822-1.383-1.201-2.093
			c-0.598-1.121-1.03-2.326-1.571-3.475c-0.951-2.022-2.203-3.889-3.911-5.351c-2.926-2.504-6.839-3.405-10.612-3.513
			c-4.336-0.124-9.154,0.695-12.529,3.61c-3.468,2.995-5.75,7.467-6.328,11.989c-0.325,2.543-0.072,5.146,0.566,7.622
			c0.311,1.207,0.801,2.295,1.263,3.444c0.471,1.172,0.797,2.484,1.155,3.7c0.621,2.107,0.638,4.354,1.403,6.422
			c0.721,1.95,2.101,3.57,3.359,5.191c1.597,2.058,2.902,4.416,4.688,6.314c0.668,0.71,1.394,1.154,2.372,1.264
			c1.758,0.197,3.374-0.204,5.091-0.37c0.065-0.006,0.221-0.105,0.28-0.084c0.169,0.058,0.294,0.555,0.386,0.768
			c0.239,0.552,0.497,1.097,0.768,1.634c0.248,0.491,0.623,0.983,0.823,1.492c0.14,0.356,0.174,0.181-0.049,0.458
			c-0.07,0.087-0.225,0.162-0.32,0.223c-0.566,0.369-1.191,0.656-1.824,0.888c-0.201,0.074-0.527,0.242-0.748,0.238
			c-0.085-0.001-0.211-0.149-0.399-0.15c-0.468-0.003-0.897,0.438-1.29,0.592c-1.237,0.485-2.488,0.889-3.701,1.446
			c-3.798,1.744-7.638,3.67-9.765,7.423c-2.77,4.888-3.474,10.628-5.52,15.805c-0.974,2.465-2.292,4.749-3.828,6.904
			c-1.546,2.169-3.257,4.321-5.348,5.99c-0.207,0.165-0.517,0.5-0.757,0.586c-0.359,0.128-0.312,0.064-0.691-0.215
			c-0.618-0.455-1.239-0.907-1.852-1.37c-1.201-0.908-2.385-1.844-3.527-2.825c-1.609-1.382-3.312-2.865-4.442-4.686
			c-0.753-1.213-0.962-2.659-1.681-3.881c-0.775-1.318-2.077-2.303-3.285-3.191c-2.083-1.532-4.887-4.11-7.748-3.596
			c1.786-1.166,3.056-2.879,3.857-4.854c0.659-1.624,0.792-3.327,0.484-5.05c-0.465-2.603-1.637-5.267-3.534-7.148
			c-1.801-1.787-4.256-2.715-6.704-3.198c-3.344-0.66-6.878-0.617-10.209,0.105c-3.221,0.698-6.291,2.095-8.91,4.1
			c-1.86,1.424-3.551,3.216-4.365,5.449c-0.897,2.462-0.809,5.367-0.03,7.846c0.536,1.704,1.505,3.183,2.842,4.366
			c1.689,1.494,3.829,2.583,6.094,2.782c0.643,0.057,1.289,0.045,1.933,0.009c-0.094,1.446,0.718,1.763,1.785,2.518
			c1.109,0.785,1.702,2.044,2.705,2.941c0.467,0.418,0.994,0.768,1.546,1.064c0.547,0.293,1.247,0.403,1.762,0.71
			c0.262,0.156,0.147-0.013,0.269,0.254c0.145,0.319,0.064,0.949,0.088,1.297c0.052,0.762,0.061,1.541,0.156,2.299
			c0.05,0.396,0.089,0.719,0.481,0.9c1.184,0.548,3.413-0.145,4.524-0.519c0.84-0.283,1.547-0.703,1.383-1.705
			c-0.078-0.473-0.328-0.935-0.499-1.378c-0.164-0.426-0.912-1.73-0.746-2.11c0.03-0.068,0.466-0.379,0.549-0.423
			c0.411-0.223,0.882,0.05,1.416,0.213c1.005,0.308,2.013,0.491,3.027,0.747c0.419,0.106,0.789,0.26,1.133,0.526
			c1.579,1.222,2.466,3.475,3.438,5.142c0.94,1.613,1.979,2.803,3.22,4.158c0.84,0.917,0.968,2.16,1.448,3.27
			c0.907,2.099,2.433,3.965,3.958,5.643c1.879,2.067,3.983,3.945,6.166,5.684c0.991,0.79,2.087,1.643,3.338,1.979
			c3.134,0.841,5.95-2.527,7.865-4.428c4.011-3.981,7.855-8.222,11.114-12.846c1.429-2.027,2.672-4.149,3.739-6.387
			c0.948-1.989,1.758-4.237,3.296-5.871c0.651-0.691,1.422-1.246,2.18-1.812c0.878,2.258,2.588,3.944,2.659,6.47
			c0.058,2.069-0.475,4.133-0.774,6.167c-0.288,1.955-0.488,3.947-0.339,5.924c0.199,2.646,1.227,4.916,3.071,6.82
			c2.231,2.303,5.473,3.686,7.152,6.498c0.674,1.128,1.089,2.402,1.26,3.702c0.29,2.21,0.45,4.311,1.01,6.483
			c0.606,2.352,1.36,4.675,1.838,7.059c0.463,2.309,0.51,4.668,0.653,7.011c0.137,2.24,0.413,4.425,0.864,6.624
			c0.285,1.389,0.606,2.811,0.456,4.237c-0.138,1.303-0.74,2.506-0.875,3.806c-0.014,0.133,0.045,0.362-0.006,0.461
			c-0.122,0.236-0.607,0.438-0.805,0.651c-0.253,0.274-0.405,0.57-0.473,0.937c-0.228,1.239,0.257,2.626,0.427,3.834
			c0.2,1.427,0.026,2.728-0.19,4.148c-0.228,1.497,0.015,2.813,0.18,4.312c0.131,1.192-0.191,2.05-0.567,3.168
			c-0.35,1.04-0.609,2.207-0.478,3.31c0.055,0.462,0.353,0.9,0.376,1.314c0.032,0.563-0.267,1.266-0.38,1.827
			c-0.124,0.614-0.246,1.228-0.361,1.844c-0.955,5.088-1.695,10.238-2.165,15.394c-0.218,2.392-0.339,4.795-0.228,7.197
			c0.057,1.227,0.174,2.449,0.304,3.67c0.091,0.851,0.128,1.09-0.262,1.833c-0.292,0.556-0.582,1.114-0.868,1.673
			c-2.255,4.403-4.263,8.916-5.688,13.66c-0.953,3.174-2.089,6.923-1.047,10.224c0.45,1.425,1.3,2.685,2.19,3.868
			c1.54,2.046,3.107,4.052,4.53,6.184c2.689,4.031,5.149,8.25,7.259,12.613c2.296,4.747,3.921,9.716,5.595,14.705
			c1.558,4.641,3.364,9.149,5.198,13.686c1.882,4.657,3.664,9.377,3.8,14.458C861.366,357.974,861.128,360.27,860.861,362.564z"/>
	</g>
	<g id="POLYLINE_55_">
		<path fill="none" stroke="#E74C3C" stroke-width="3" stroke-linecap="round" stroke-linejoin="round" stroke-miterlimit="10" d="
			M111.431,360.527c-0.472-0.581-1.01-0.998-1.736-0.606c-1.225,0.661-2.148,2.215-2.99,3.251c-2.281,2.806-3.868,5.43-4.329,9.074
			c-0.315,2.494-0.25,5.253,1.003,7.504c0.955,1.718,2.521,2.933,4.298,3.72c1.854,0.822,3.866,1.273,5.813,1.808
			c2.012,0.553,3.972,1.216,5.894,2.03c3.844,1.628,7.504,3.785,11.488,5.063c3.355,1.076,7.052,1.416,10.561,1.232
			c2.415-0.127,5.152-0.545,7.085-2.142c1.34-1.107,2.062-2.792,2.277-4.491c0.173-1.367,0.037-2.808-0.91-3.876
			c-0.81-0.914-1.943-1.534-2.949-2.196c-1.832-1.205-3.675-2.401-5.581-3.486c-3.367-1.916-7.027-2.991-10.056-5.503
			c-1.991-1.651-3.315-3.437-3.164-6.1c0.065-1.142,0.108-2.193-0.135-3.316c-0.08-0.372-0.186-0.642-0.106-1
			c0.077-0.344,0.272-0.691,0.382-1.028c0.258-0.794,0.418-1.61,0.592-2.425c0.863-4.051,2.652-7.919,4.452-11.627
			c1.927-3.97,4.073-7.824,6.384-11.583c2.358-3.837,4.871-7.575,7.278-11.381c2.381-3.764,4.332-7.796,6.9-11.441
			c2.446-3.473,5.249-6.793,8.367-9.683c1.378-1.278,2.672-2.52,3.756-4.064c1.202-1.712,2.22-3.551,3.19-5.401
			c1.011-1.927,1.955-3.886,2.903-5.846c2.112,1.743,5.035,3.799,5.832,6.6c0.645,2.268-0.711,4.547-1.852,6.404
			c-2.511,4.083-5.242,7.906-7.094,12.358c-1.837,4.416-2.844,9.05-3.364,13.793c-0.549,5.01-0.704,10.055-1.122,15.076
			c-0.43,5.169-0.881,10.341-1.456,15.496c-0.267,2.391-0.537,4.795-1.049,7.148c-0.182,0.834-0.401,1.658-0.693,2.461
			c-0.136,0.374-0.236,0.82-0.555,0.988c-0.179,0.095-0.5,0.09-0.703,0.141c-2.148,0.536-3.21,2.202-3.992,4.152
			c-1.717,4.278-2.753,9.103-3.148,13.688c-0.188,2.186-0.38,5.144,1.562,6.675c0.834,0.657,1.903,0.973,2.924,1.193
			c2.195,0.474,4.481,0.533,6.718,0.55c4.872,0.037,9.748-0.017,14.62-0.047c5.329-0.033,10.661-0.02,15.984-0.303
			c4.395-0.233,9.025-0.566,12.953-2.751c1.572-0.874,3.073-2.137,3.374-4.005c0.242-1.504-0.236-3.106-1.174-4.293
			c-1.064-1.346-2.67-2.109-4.322-2.454c-2.228-0.464-4.529-0.316-6.775-0.635c-1.492-0.212-2.887-0.712-4.228-1.397
			c-2.228-1.14-4.388-2.448-6.542-3.721c-1.559-0.922-3.231-1.893-4.407-3.304c-1.025-1.229-1.5-2.766-2.083-4.229
			c-0.296-0.742-0.726-2.079-1.54-2.462c-0.789-0.371-1.689,0.349-2.299,0.768c-0.284-1.461-0.539-2.877-0.441-4.369
			c0.122-1.846,0.552-3.673,1.022-5.457c1.023-3.885,2.419-7.672,3.897-11.404c1.715-4.329,3.537-8.618,5.193-12.971
			c1.692-4.449,3.159-8.981,4.695-13.485c1.226-3.596,2.664-7.107,4.153-10.601c1.764-4.136,3.715-8.264,4.961-12.597
			c0.81-2.819,1.057-5.294,0.237-8.108c-0.417-1.429-0.49-2.895-0.825-4.339c-0.402-1.736-1.119-3.402-1.926-4.986
			c-1.778-3.491-4.145-6.667-6.584-9.719c-1.632-2.042-3.293-4.06-4.939-6.09c-0.493-0.608-0.985-1.216-1.455-1.842
			c-0.254-0.339-0.601-0.71-0.777-1.097c-0.226-0.496,0.06-0.901,0.244-1.436c0.32-0.926,0.619-1.861,0.867-2.809
			c0.18-0.69,0.22-1.463,0.435-2.137c0.189-0.591,1.03-0.872,1.334-1.558c0.378-0.856,0.369-1.883,0.35-2.798
			c-0.047-2.226-0.327-4.449-0.512-6.666c-0.161-1.931-0.205-3.866-0.196-5.804c0.005-1.184,0.328-2.315,0.344-3.511
			c0.023-1.713-0.335-3.407-0.278-5.118c0.061-1.853,0.284-3.625,0.08-5.48c-0.398-3.625-1.753-7.248-1.381-10.923
			c0.109-1.074,0.283-2.08-0.004-3.133c-0.244-0.898-0.445-1.6-0.255-2.534c0.235-1.156,0.741-2.249,0.885-3.426
			c0.155-1.263-0.186-2.495-0.25-3.751c-0.084-1.664,0.277-3.327,0.466-4.972c0.238-2.066,0.357-4.148,0.369-6.228
			c0.026-4.461-0.141-8.929,0.064-13.387c0.185-4.044,1.279-8.034,1.316-12.072c0.013-1.419-0.185-2.824-0.494-4.206
			c1.719,0.472,3.287,1.102,4.765,2.106c1.935,1.315,3.413,3.085,5.237,4.509c0.779,0.608,1.66,0.836,2.514,0.228
			c0.755-0.538,0.931-1.319,0.427-2.099c-1.022-1.582-2.998-2.559-4.41-3.735c-0.311-0.259-2.374-1.799-2.123-2.434
			c0.272-0.687,2.77,0.645,3.122,0.834c1.183,0.634,1.932,1.574,2.927,2.445c1.302,1.141,3.015,1.994,4.604,2.649
			c0.719,0.297,1.811,0.72,2.217-0.213c0.43-0.986-0.02-2.455-0.315-3.411c-0.49-1.585-1.261-3.135-2.334-4.408
			c-2.021-2.398-5.253-3.284-8.093-4.308c-2.506-0.904-5.039-1.765-7.475-2.849c-0.89-0.396-1.76-0.837-2.587-1.354
			c-0.883-0.552-2.103-1.232-2.772-2.026c-0.351-0.417-0.454-1.161-0.623-1.685c-0.195-0.605-0.394-1.209-0.586-1.815
			c-0.388-1.223-0.766-2.45-1.124-3.682c-0.753-2.595-1.432-5.21-2.157-7.813c-0.692-2.486-1.291-5.233-3.386-6.939
			c-0.311-0.253-0.643-0.481-0.995-0.674c0.908-1.478,1.927-3.453,1.811-5.258c-0.042-0.656-0.266-1.272-0.571-1.85
			c-0.189-0.358-0.361-0.529-0.293-0.917c0.084-0.479,0.413-0.942,0.586-1.398c0.617-1.63,0.04-3.361,0.116-5.053
			c0.125-2.783,0.72-5.575,0.209-8.356c-0.086-0.469-0.195-0.966-0.427-1.388c-0.378-0.689-1.043-0.743-1.605-1.212
			c-0.648-0.541-0.883-1.513-1.238-2.235c-0.356-0.723-0.855-1.08-1.385-1.664c-0.418-0.46-0.336-0.954-0.592-1.476
			c-0.464-0.945-1.716-1.658-2.508-2.317c-0.669-0.557-0.795-1.114-1.208-1.852c-0.254-0.454-0.542-0.644-1.061-0.637
			c-0.717,0.008-1.402,0.437-2.124,0.279c-0.852-0.186-1.566-0.974-2.259-1.439c-0.463-0.31-0.952-0.651-1.515-0.455
			c-0.208,0.073-0.368,0.307-0.607,0.288c-0.326-0.026-0.615-0.484-0.825-0.672c-1.168-1.047-2.286-0.245-3.664-0.217
			c-0.632,0.013-0.977-0.365-1.526-0.619c-0.468-0.217-0.97-0.254-1.48-0.241c-1.481,0.038-3.146,0.415-4.427,1.183
			c-0.571,0.342-0.855,0.787-1.252,1.307c-0.505,0.662-1.209,0.971-1.888,1.431c-0.635,0.431-0.906,1.023-1.367,1.618
			c-0.798,1.031-1.864,1.853-2.784,2.768c-1.099,1.093-2.183,2.337-2.543,3.882c-0.162,0.695-0.231,1.331-0.612,1.942
			c-0.403,0.646-0.964,1.182-1.34,1.847c-0.673,1.189-0.279,1.922-0.068,3.183c0.123,0.732-0.094,1.439-0.187,2.163
			c-0.098,0.763-0.077,1.535,0.001,2.299c0.271,2.677,1.329,5.402,2.662,7.727c0.509,0.889,1.195,1.666,1.676,2.571
			c0-1.049-2.989-2.468-2.787-0.7c0.109,0.953,0.947,1.776,1.228,2.697c0.312,1.024,0.258,2.155,0.736,3.129
			c0.28,0.571,0.733,1.03,1.086,1.553c0.381,0.564,0.644,1.196,1.014,1.766c-1.133,0.168-2.809,0.723-3.44,1.766
			c-0.696,1.15-0.482,2.71-0.906,3.973c-0.472,1.406-1.555,2.501-2.065,3.875c-0.112,0.303-0.165,0.605-0.168,0.927
			c-0.005,0.574,0.047,0.742-0.328,1.241c-0.431,0.574-0.88,1.134-1.326,1.696c-1.181,1.489-2.367,3.154-3.959,4.24
			c-1.306,0.89-2.871,1.075-4.41,1.19c-1.348,0.1-2.708,0.11-4.055-0.017c-0.693-0.066-2.107-0.078-2.686-0.546
			c-0.744-0.602-1.245-2.059-1.693-2.868c-0.637-1.149-1.306-2.279-2.01-3.388c-1.445-2.278-3.013-4.499-4.785-6.535
			c-1.787-2.053-3.883-3.791-5.756-5.758c-0.899-0.944-1.702-1.97-2.438-3.046c-0.557-0.815-1.365-1.72-1.539-2.706
			c-0.157-0.885-0.1-1.89,0.398-2.664c0.896-1.391,4.46-2.523,3.684-4.63c-0.297-0.808-2.122-1.361-1.179-2.186
			c0.913-0.799,2.326-0.997,3.072-2.014c0.471-0.643,0.443-1.593-0.035-2.233c-0.246-0.329-0.555-0.485-0.958-0.53
			c-0.373-0.042-1.163,0.26-1.323-0.152c-0.136-0.35,0.421-1.063,0.463-1.487c0.034-0.339-0.027-0.685-0.182-0.989
			c-0.463-0.906-1.405-0.876-2.281-0.761c-1.286,0.169-2.546,0.503-3.829,0.697c1.582-1.732,2.616-3.756,2.924-6.091
			c0.432-3.281-0.474-6.57-1.631-9.613c-1.617-4.252-3.803-8.333-6.33-12.112c-2.12-3.17-4.602-6.212-7.96-8.126
			c-2.39-1.362-5.149-2.17-7.915-1.985c-2.349,0.157-4.692,1.031-6.533,2.506c-1.447,1.159-2.462,2.675-2.836,4.508
			c-0.717,3.514,0.314,7.476,1.212,10.855c1.066,4.011,2.783,7.767,5.082,11.22c1.877,2.818,4.156,6.158,7.14,7.905
			c0.62,0.363,1.291,0.629,1.95,0.914c-0.794,0.904-1.586,1.868-2.236,2.882c-0.281,0.437-0.538,0.919-0.552,1.451
			c-0.034,1.306,1.151,2.315,1.282,3.604c0.119,1.176-0.485,2.257,0.094,3.381c0.396,0.768,1.062,1.416,1.614,2.063
			c0.852,0.996,1.714,1.974,2.634,2.908c1.862,1.891,3.85,3.722,5.274,5.985c1.339,2.128,2.061,4.535,2.819,6.912
			c0.874,2.744,1.81,5.468,3.058,8.068c1.19,2.478,2.843,4.679,4.257,7.028c1.614,2.681,3.161,5.403,4.794,8.073
			c1.08,1.767,2.158,3.942,3.813,5.256c0.615,0.489,1.273,0.757,1.838,1.315c0.97,0.96,1.958,1.906,2.899,2.894
			c2.376,2.494,4.711,5.033,7.153,7.462c2.029,2.018,4.203,3.834,6.472,5.575c1.576,1.209,3.415,2.384,4.405,4.165
			c0.75,1.349,1.036,2.936,1.303,4.437c0.52,2.922,0.917,5.865,1.708,8.732c0.831,3.014,1.957,5.933,3.002,8.875
			c0.42,1.182,0.774,2.383,1.104,3.593c0.254,0.932,0.715,1.987,0.732,2.976c0.024,1.409-1.67,2.41-2.531,3.277
			c-1.751,1.764-3.194,3.867-4.385,6.042c-1.23,2.245-2.132,4.64-2.46,7.188c-0.381,2.958,0.132,5.847,0.271,8.797
			c0.041,0.874,0.035,1.752-0.114,2.616c-0.158,0.918-0.53,1.824-0.555,2.763c-0.033,1.261,0.925,2.093,1.636,3.022
			c0.344,0.449,0.626,0.931,0.865,1.443c0.477,1.023,1.228,2.405,1.289,3.513c0.138,2.511,0.364,4.796,1.028,7.242
			c1.531,5.635,3.076,11.549,5.705,16.79c0.642,1.28,1.409,2.681,2.627,3.51c0.365,0.248,0.764,0.435,1.187,0.56
			c0.364,0.108,0.74,0.162,1.116,0.203c0.305,0.034,0.664,0.013,0.964,0.085c0.498,0.119,0.361,0.172,0.315,0.713
			c-0.182,2.135-0.525,4.303-1.534,6.219c-1.089,2.067-2.877,3.633-4.496,5.274c-4.033,4.088-7.422,8.519-9.88,13.728
			c-2.587,5.483-4.456,11.432-5.956,17.299c-1.482,5.796-3.04,11.551-4.781,17.276c-1.819,5.978-3.403,12.124-5.832,17.892
			C114.298,355.663,112.97,358.15,111.431,360.527z"/>
	</g>
	<g id="POLYLINE_54_">
		<path fill="none" stroke="#E74C3C" stroke-width="3" stroke-linecap="round" stroke-linejoin="round" stroke-miterlimit="10" d="
			M225.757,243.057h-4.88v-5.208H782.72v5.208h-4.88v10.417h-26.18l-81.797,23.101l83.692,114.882
			c0.365,0.509,0.357,1.208-0.036,1.701c-0.483,0.607-1.211,0.531-1.906,0.531c-5.152,0-10.305,0-15.457,0
			c-0.807,0-1.791,0.171-2.338-0.578l-78.18-107.316l-23.546-32.321H371.506L269.78,393.111c-0.445,0.602-1.097,0.578-1.77,0.578
			c-2.466,0-4.933,0-7.399,0c-2.688,0-5.375,0-8.063,0c-0.719,0-1.684,0.176-2.283-0.338c-0.552-0.473-0.647-1.308-0.221-1.894
			l76.975-105.662l6.717-9.22l-81.797-23.101h-26.18V243.057z"/>
	</g>
</g>
</svg>
